<svg aria-hidden="true" style="position: absolute; width: 0; height: 0; overflow: hidden;" version="1.1" xmlns="http://www.w3.org/2000/svg" xmlns:xlink="http://www.w3.org/1999/xlink">
<defs>
<symbol id="icon-Group" viewBox="0 0 32 32">
<path fill="#24cca7" style="fill: var(--color2, #24cca7)" d="M28.571 0h-0.611c-1.414 0-2.56 1.146-2.56 2.56v0.611c0 1.414 1.146 2.56 2.56 2.56h0.611c1.414 0 2.56-1.146 2.56-2.56v-0.611c0-1.414-1.146-2.56-2.56-2.56z"></path>
<path fill="#fff" style="fill: var(--color3, #fff)" d="M28.354 0.923c0.109 0 0.194 0.085 0.194 0.194v0.101c0.264 0.031 0.496 0.116 0.706 0.248 0.070 0.039 0.14 0.109 0.14 0.217 0 0.14-0.116 0.248-0.256 0.248-0.046 0-0.093-0.016-0.14-0.039-0.155-0.093-0.31-0.163-0.465-0.202v0.869c0.69 0.171 0.985 0.45 0.985 0.931 0 0.496-0.388 0.83-0.962 0.884v0.271c0 0.109-0.085 0.194-0.194 0.194s-0.202-0.085-0.202-0.194v-0.279c-0.341-0.039-0.652-0.155-0.931-0.357-0.078-0.047-0.124-0.124-0.124-0.217 0-0.14 0.109-0.248 0.248-0.248 0.054 0 0.109 0.015 0.147 0.047 0.209 0.155 0.419 0.256 0.667 0.302v-0.884c-0.659-0.171-0.969-0.419-0.969-0.931 0-0.489 0.388-0.822 0.954-0.869v-0.093c0.008-0.109 0.093-0.194 0.202-0.194zM28.176 2.466v-0.807c-0.287 0.031-0.434 0.178-0.434 0.38 0 0.194 0.085 0.31 0.434 0.427zM28.533 3.095v0.822c0.287-0.031 0.45-0.178 0.45-0.396 0-0.194-0.101-0.318-0.45-0.427z"></path>
<path fill="#ffd8d0" style="fill: var(--color1, #ffd8d0)" d="M5.498 19.506c0.039-0.969 0.023-1.939-0.039-2.908-0.132-1.993-0.458-3.979-0.907-5.925-0.256-1.094-0.566-2.172-0.892-3.25-0.008-0.031-0.062-0.023-0.054 0.008 1.008 3.793 1.83 7.709 1.776 11.649-0.016 1.101-0.147 2.187-0.248 3.281 0 0.031 0.047 0.039 0.054 0.008 0.209-0.915 0.271-1.9 0.31-2.862z"></path>
<path fill="#ffd8d0" style="fill: var(--color1, #ffd8d0)" d="M3.606 7.438c0 0-1.528 3.878-1.187 4.785s1.047 1.101 1.047 1.101-0.931 1.334-0.279 2.583c0.651 1.249 2.102 1.194 2.203 2.606-0.008 0.008 0.078-5.918-1.784-11.075z"></path>
<path fill="#263238" style="fill: var(--color4, #263238)" d="M5.219 16.078c0-0.008 0-0.015 0-0.023-0.217-2.637-0.683-5.258-1.481-7.794 0-0.008-0.015-0.008-0.015 0 0.302 1.132 0.574 2.272 0.799 3.42-0.202-0.202-0.458-0.318-0.729-0.403-0.008 0-0.008 0.008 0 0.008 0.279 0.124 0.551 0.264 0.752 0.504 0.047 0.225 0.085 0.45 0.132 0.675-0.341-0.38-0.814-0.574-1.287-0.752-0.008 0-0.008 0.008 0 0.008 0.496 0.202 0.985 0.458 1.318 0.884 0.116 0.644 0.217 1.287 0.31 1.939-0.248-0.264-0.558-0.434-0.907-0.52-0.008 0-0.016 0.015-0.008 0.015 0.365 0.101 0.675 0.31 0.923 0.589 0 0 0 0 0.008 0.008 0.031 0.225 0.062 0.458 0.085 0.682-0.194-0.163-0.403-0.287-0.636-0.388-0.008 0-0.008 0.008 0 0.008 0.24 0.101 0.45 0.248 0.636 0.427h0.008c0.023 0.217 0.054 0.434 0.070 0.651-0.349-0.419-0.783-0.729-1.295-0.923-0.008 0-0.015 0.008-0.008 0.015 0.496 0.217 0.938 0.558 1.272 0.985 0.008 0.008 0.023 0.015 0.031 0.008 0.031 0.333 0.062 0.667 0.085 1 0 0.008 0.008 0.008 0.008 0-0.016-0.341-0.039-0.683-0.070-1.024z"></path>
<path fill="#ffd8d0" style="fill: var(--color1, #ffd8d0)" d="M9.516 12.285c-0.636 0.45-1.249 0.962-1.768 1.543-0.551 0.621-0.954 1.319-1.241 2.102-0.574 1.598-0.892 3.327-0.923 5.026-0.016 0.954 0.070 1.892 0.271 2.823 0.008 0.031 0.054 0.023 0.054-0.008-0.248-1.636-0.24-3.304 0.031-4.94 0.264-1.605 0.675-3.343 1.691-4.646 0.558-0.706 1.249-1.264 1.931-1.846 0.039-0.031-0.008-0.078-0.047-0.054z"></path>
<path fill="#ffd8d0" style="fill: var(--color1, #ffd8d0)" d="M5.809 19.8c0 0 0.527-0.884 1.287-1.644s1.404-1.303 1.505-1.807c0.101-0.504-0.768-0.876-0.768-0.876s1.055 0.186 1.349-0.256c0.287-0.442 0.427-3.009 0.427-3.009s-1.923 1.373-2.815 3.296c-0.892 1.923-0.985 4.297-0.985 4.297z"></path>
<path fill="#263238" style="fill: var(--color4, #263238)" d="M8.95 12.867c-0.807 0.791-1.621 1.644-2.102 2.684-0.163 0.357-0.302 0.729-0.427 1.109-0.023 0.078-0.047 0.155-0.070 0.225 0 0 0 0.008-0.008 0.016-0.233 0.776-0.403 1.582-0.543 2.373 0 0.008 0.008 0.008 0.008 0 0.085-0.403 0.171-0.807 0.279-1.21h0.008c0.163-0.070 0.326-0.109 0.504-0.132 0.008 0 0.008-0.023 0-0.023-0.171 0.008-0.333 0.039-0.496 0.093 0.093-0.365 0.194-0.729 0.31-1.086 0.372-0.093 0.76-0.14 1.14-0.147 0.008 0 0.008-0.008 0-0.008-0.388-0.015-0.745 0.015-1.125 0.093 0.023-0.062 0.039-0.124 0.062-0.186 0.248-0.054 0.504-0.109 0.76-0.132 0.008 0 0.008-0.008 0-0.008-0.248 0.008-0.496 0.031-0.745 0.093 0.101-0.31 0.217-0.613 0.341-0.915 0.101-0.248 0.225-0.481 0.365-0.706 0.202-0.047 0.403-0.093 0.613-0.109 0.008 0 0.008-0.008 0-0.008-0.194-0.015-0.388 0-0.574 0.054 0.101-0.163 0.209-0.326 0.318-0.481 0.434-0.093 0.869-0.186 1.311-0.101 0.008 0 0.008-0.008 0-0.016-0.419-0.109-0.838-0.046-1.256 0.039 0.047-0.062 0.093-0.124 0.14-0.178 0.264-0.085 0.527-0.124 0.807-0.124 0.008 0 0.008-0.008 0-0.008-0.256-0.023-0.504 0-0.752 0.070 0.357-0.442 0.752-0.861 1.14-1.272 0.023-0.008 0.008-0.023-0.008 0z"></path>
<path fill="#ffd8d0" style="fill: var(--color1, #ffd8d0)" d="M0.178 15.015c0.62 0.217 1.233 0.489 1.784 0.838 0.589 0.372 1.078 0.845 1.489 1.412 0.838 1.156 1.489 2.489 1.908 3.854 0.233 0.768 0.38 1.551 0.434 2.35 0 0.031-0.039 0.031-0.047 0.008-0.178-1.38-0.574-2.73-1.163-3.994-0.582-1.233-1.318-2.552-2.443-3.374-0.613-0.442-1.303-0.737-1.985-1.047-0.039-0.008-0.016-0.062 0.023-0.047z"></path>
<path fill="#ffd8d0" style="fill: var(--color1, #ffd8d0)" d="M4.909 20.242c0 0-0.628-0.589-1.419-1.032s-1.443-0.729-1.636-1.117c-0.194-0.388 0.419-0.884 0.419-0.884s-0.814 0.396-1.148 0.109c-0.334-0.295-1.039-2.334-1.039-2.334s1.869 0.667 3.040 2.017c1.163 1.334 1.784 3.242 1.784 3.242z"></path>
<path fill="#263238" style="fill: var(--color4, #263238)" d="M4.816 19.816c-0.938-1.761-2.187-3.35-3.901-4.397 0.45 0.287 0.869 0.62 1.256 0.977-0.349-0.008-0.698 0.047-1.008 0.209-0.008 0 0 0.015 0.008 0.008 0.341-0.116 0.675-0.194 1.039-0.178 0.008 0 0.008 0 0.015-0.008 0.062 0.054 0.124 0.116 0.178 0.178-0.178 0.008-0.365 0.031-0.535 0.070-0.008 0 0 0.008 0 0.008 0.194-0.039 0.372-0.046 0.566-0.046 0.31 0.318 0.605 0.651 0.884 1-0.124-0.015-0.256-0.008-0.38 0.031-0.008 0-0.008 0.015 0 0.015 0.14-0.015 0.264-0.015 0.403-0.008 0.054 0.062 0.101 0.132 0.155 0.194-0.388-0.023-0.76 0.015-1.14 0.109-0.008 0-0.008 0.008 0 0.008 0.388-0.078 0.776-0.101 1.171-0.078 0.047 0.062 0.093 0.132 0.14 0.194-0.233-0.008-0.45 0.023-0.675 0.078-0.008 0-0.008 0.016 0 0.016 0.233-0.054 0.465-0.062 0.698-0.054 0.202 0.279 0.396 0.558 0.582 0.845-0.101-0.023-0.202-0.008-0.295 0.015-0.008 0 0 0.008 0 0.008 0.109-0.016 0.209 0 0.318 0.015 0.171 0.256 0.326 0.52 0.481 0.783 0.016 0.046 0.047 0.031 0.039 0.008z"></path>
<path fill="#455a64" style="fill: var(--color5, #455a64)" d="M7.329 26.082h-4.227l0.597-4.413 0.155-1.132h2.714l0.155 1.132 0.605 4.413z"></path>
<path fill="#263238" style="fill: var(--color4, #263238)" d="M23.507 1.761v24.973c0 0.737-0.589 1.334-1.311 1.334h-12.913c-0.721 0-1.311-0.597-1.311-1.334v-24.973c0-0.737 0.589-1.334 1.311-1.334h12.921c0.713 0.008 1.303 0.605 1.303 1.334z"></path>
<path fill="#fff" style="fill: var(--color3, #fff)" d="M22.693 3.017v22.902c0 0.698-0.527 1.264-1.171 1.264h-11.556c-0.651 0-1.171-0.566-1.171-1.264v-22.902c0-1.427 0.527-1.745 1.171-1.745h2.311c0.132 0 0.24 0.155 0.24 0.341v0.085c0 0.442 0.24 0.45 0.543 0.45h5.351c0.303 0 0.543 0 0.543-0.45v-0.085c0-0.186 0.109-0.341 0.24-0.341h2.319c0.652 0.008 1.179 0.442 1.179 1.745z"></path>
<path fill="#fff" style="fill: var(--color3, #fff)" d="M16.473 1.59h-1.458c-0.047 0-0.093-0.039-0.093-0.093 0-0.047 0.039-0.093 0.093-0.093h1.458c0.046 0 0.093 0.039 0.093 0.093-0.008 0.054-0.047 0.093-0.093 0.093z"></path>
<path fill="#4a56e2" style="fill: var(--color6, #4a56e2)" d="M21.266 11.463l0.015 6.197c0 0.349-0.279 0.628-0.628 0.628l-9.826 0.023c-0.349 0-0.628-0.279-0.628-0.628l-0.015-6.197c0-0.326 0.256-0.582 0.582-0.582l9.912-0.023c0.326 0 0.589 0.264 0.589 0.582z"></path>
<path fill="#ffc727" style="fill: var(--color7, #ffc727)" d="M12.874 13.41h-1.427c-0.178 0-0.326-0.147-0.326-0.326v-0.783c0-0.178 0.147-0.326 0.326-0.326h1.427c0.178 0 0.326 0.147 0.326 0.326v0.783c0 0.178-0.147 0.318-0.326 0.326z"></path>
<path fill="#fff" style="fill: var(--color3, #fff)" d="M19.986 12.735h-0.939c-0.217 0-0.396-0.178-0.396-0.396s0.178-0.396 0.396-0.396h0.939c0.217 0 0.396 0.178 0.396 0.396 0 0.225-0.171 0.396-0.396 0.396z"></path>
<path fill="#f8f8f8" style="fill: var(--color8, #f8f8f8)" d="M11.051 14.72l-0.085 0.046h-0.008c-0.008 0-0.015-0.008-0.015-0.008-0.008-0.008 0-0.023 0.008-0.031l0.116-0.070c0.008-0.008 0.023 0 0.031 0.008 0 0.008 0 0.008 0 0.016v0.551c0 0.008-0.008 0.023-0.023 0.023-0.008 0-0.023-0.008-0.023-0.023v-0.512z"></path>
<path fill="#f8f8f8" style="fill: var(--color8, #f8f8f8)" d="M11.238 15.224l0.279-0.256c0.031-0.031 0.054-0.070 0.054-0.116 0-0.039-0.015-0.077-0.039-0.101-0.031-0.031-0.070-0.054-0.116-0.054-0.039 0-0.078 0.015-0.109 0.039l-0.031 0.023c-0.008 0.008-0.023 0.008-0.031 0s-0.008-0.023 0-0.031l0.031-0.031c0.039-0.031 0.085-0.054 0.132-0.054 0.054 0 0.109 0.023 0.147 0.062s0.054 0.085 0.054 0.132c0 0.054-0.023 0.109-0.062 0.147l-0.24 0.217h0.287c0.008 0 0.023 0.008 0.023 0.023 0 0.008-0.008 0.023-0.023 0.023h-0.334c-0.008 0-0.015 0-0.015-0.008-0.015 0.008-0.015-0.008-0.008-0.015z"></path>
<path fill="#f8f8f8" style="fill: var(--color8, #f8f8f8)" d="M12.114 14.697l-0.155 0.163c0.039 0.008 0.078 0.023 0.101 0.054 0.039 0.039 0.062 0.093 0.062 0.147s-0.023 0.109-0.062 0.147-0.093 0.062-0.147 0.062c-0.054 0-0.101-0.023-0.147-0.062-0.008-0.008-0.008-0.023 0-0.031s0.023-0.008 0.031 0c0.031 0.031 0.070 0.047 0.116 0.047 0.039 0 0.085-0.015 0.116-0.047s0.047-0.070 0.047-0.116c0-0.039-0.015-0.085-0.047-0.116s-0.070-0.047-0.116-0.047c-0.008 0-0.015 0-0.015-0.008-0.008-0.008-0.008-0.023 0-0.031l0.147-0.155h-0.233c-0.015 0-0.023-0.008-0.023-0.023s0.008-0.023 0.023-0.023h0.279c0.015 0 0.023 0.008 0.023 0.023 0.008 0 0 0.008 0 0.015 0 0 0-0.008 0 0z"></path>
<path fill="#f8f8f8" style="fill: var(--color8, #f8f8f8)" d="M12.618 15.139h-0.326c-0.008 0-0.008 0-0.015-0.008s-0.008-0.023 0-0.031l0.349-0.434c0.008-0.008 0.023-0.008 0.031 0l0.008 0.008v0.411h0.039c0.015 0 0.023 0.008 0.023 0.023 0 0.008-0.008 0.023-0.023 0.023h-0.039v0.101c0 0.008-0.008 0.023-0.023 0.023-0.008 0-0.023-0.008-0.023-0.023v-0.093zM12.618 15.093v-0.357l-0.287 0.357h0.287z"></path>
<path fill="#f8f8f8" style="fill: var(--color8, #f8f8f8)" d="M13.378 15.201c-0.008-0.008-0.008-0.023 0-0.031s0.023-0.008 0.031 0c0.031 0.031 0.070 0.046 0.116 0.046 0.039 0 0.085-0.015 0.116-0.046s0.046-0.070 0.046-0.116c0-0.039-0.015-0.085-0.046-0.116s-0.070-0.046-0.116-0.046c-0.039 0-0.085 0.015-0.116 0.046-0.008 0.008-0.023 0.008-0.031 0l-0.008-0.008v-0.008c0 0 0 0 0-0.008l0.031-0.24c0-0.008 0-0.015 0.008-0.015 0 0 0.008-0.008 0.015-0.008h0.279c0.016 0 0.023 0.008 0.023 0.023s-0.008 0.023-0.023 0.023h-0.264l-0.023 0.178c0.031-0.015 0.070-0.031 0.101-0.031 0.054 0 0.101 0.015 0.147 0.062 0.039 0.039 0.062 0.093 0.062 0.147s-0.015 0.109-0.062 0.147c-0.039 0.039-0.093 0.062-0.147 0.062-0.046-0.008-0.101-0.023-0.14-0.062z"></path>
<path fill="#f8f8f8" style="fill: var(--color8, #f8f8f8)" d="M13.952 14.782c0.039-0.070 0.109-0.124 0.209-0.132 0.008 0 0.023 0.008 0.023 0.023s-0.008 0.023-0.023 0.023c-0.085 0-0.14 0.046-0.178 0.109-0.023 0.039-0.031 0.078-0.047 0.124 0.039-0.039 0.093-0.070 0.147-0.070 0.109 0 0.202 0.085 0.202 0.202 0 0.109-0.085 0.202-0.202 0.202-0.109 0-0.194-0.085-0.202-0.194 0-0.015 0-0.023 0-0.039 0.008-0.085 0.023-0.171 0.070-0.248zM13.937 15.062c0 0.008 0 0.008 0 0.008v0.008c0.008 0.078 0.078 0.14 0.155 0.14 0.085 0 0.155-0.070 0.155-0.155s-0.070-0.155-0.163-0.155c-0.078-0.008-0.147 0.062-0.147 0.155z"></path>
<path fill="#f8f8f8" style="fill: var(--color8, #f8f8f8)" d="M14.51 15.224l0.225-0.527h-0.295c-0.008 0-0.023-0.008-0.023-0.023 0-0.008 0.008-0.023 0.023-0.023h0.318c0.008 0 0.008 0 0.015 0s0.008 0.008 0.008 0.015v0.008c0 0.008 0 0.008 0 0.008l-0.233 0.558c0 0.008-0.008 0.015-0.015 0.015h-0.008c-0.015-0.008-0.015-0.023-0.015-0.031z"></path>
<path fill="#f8f8f8" style="fill: var(--color8, #f8f8f8)" d="M15.108 14.65c0.070 0 0.124 0.054 0.124 0.124 0 0.039-0.023 0.078-0.054 0.101 0.070 0.031 0.124 0.101 0.124 0.178 0 0.109-0.085 0.194-0.194 0.194s-0.194-0.085-0.194-0.194c0-0.078 0.046-0.155 0.124-0.178-0.031-0.023-0.046-0.062-0.046-0.101-0.008-0.070 0.046-0.124 0.116-0.124zM15.108 15.209c0.085 0 0.155-0.070 0.155-0.155s-0.070-0.155-0.155-0.155c-0.085 0-0.155 0.070-0.155 0.155 0 0.093 0.070 0.155 0.155 0.155zM15.108 14.86c0.046 0 0.085-0.039 0.085-0.085s-0.039-0.085-0.085-0.085c-0.047 0-0.085 0.039-0.085 0.085s0.039 0.085 0.085 0.085z"></path>
<path fill="#f8f8f8" style="fill: var(--color8, #f8f8f8)" d="M16.178 14.65c0.101 0 0.186 0.078 0.202 0.178 0 0 0 0 0 0.008 0 0.016 0 0.031 0 0.054 0 0.078-0.016 0.171-0.054 0.24s-0.109 0.124-0.209 0.132c-0.016 0-0.023-0.008-0.023-0.023s0.008-0.023 0.023-0.023c0.085 0 0.14-0.046 0.178-0.109 0.023-0.039 0.039-0.078 0.047-0.124-0.039 0.039-0.093 0.070-0.147 0.070-0.109 0-0.202-0.085-0.202-0.202-0.008-0.116 0.078-0.202 0.186-0.202zM16.341 14.844c0-0.085-0.070-0.155-0.155-0.155s-0.155 0.070-0.155 0.155c0 0.085 0.070 0.155 0.155 0.155s0.155-0.070 0.155-0.155z"></path>
<path fill="#f8f8f8" style="fill: var(--color8, #f8f8f8)" d="M16.535 14.945c0-0.078 0.023-0.155 0.054-0.209 0.039-0.054 0.093-0.093 0.147-0.093 0.062 0 0.116 0.039 0.147 0.093 0.039 0.054 0.062 0.132 0.062 0.209s-0.023 0.155-0.054 0.209c-0.039 0.054-0.093 0.093-0.147 0.093-0.062 0-0.116-0.039-0.147-0.093-0.039-0.054-0.062-0.124-0.062-0.209zM16.573 14.945c0 0.077 0.023 0.14 0.054 0.186s0.070 0.070 0.116 0.070c0.047 0 0.085-0.023 0.116-0.070s0.054-0.116 0.054-0.186c0-0.078-0.023-0.14-0.054-0.186s-0.070-0.070-0.116-0.070c-0.046 0-0.085 0.023-0.116 0.070s-0.054 0.116-0.054 0.186z"></path>
<path fill="#f8f8f8" style="fill: var(--color8, #f8f8f8)" d="M17.233 14.705l-0.085 0.047h-0.008c-0.008 0-0.015-0.008-0.015-0.008-0.008-0.008 0-0.023 0.008-0.031l0.116-0.070c0.008-0.008 0.023 0 0.031 0.008 0 0.008 0 0.008 0 0.015v0.551c0 0.008-0.008 0.023-0.023 0.023-0.008 0-0.023-0.008-0.023-0.023v-0.512z"></path>
<path fill="#f8f8f8" style="fill: var(--color8, #f8f8f8)" d="M17.419 15.209l0.279-0.256c0.031-0.031 0.054-0.070 0.054-0.116 0-0.039-0.015-0.078-0.039-0.101-0.031-0.031-0.070-0.054-0.116-0.054-0.039 0-0.077 0.015-0.109 0.039l-0.031 0.023c-0.008 0.008-0.023 0.008-0.031 0s-0.008-0.023 0-0.031l0.031-0.031c0.039-0.031 0.085-0.054 0.132-0.054 0.054 0 0.109 0.023 0.147 0.062s0.054 0.085 0.054 0.132c0 0.054-0.023 0.109-0.062 0.147l-0.241 0.217h0.287c0.008 0 0.023 0.008 0.023 0.023 0 0.008-0.008 0.023-0.023 0.023h-0.333c-0.008 0-0.016 0-0.016-0.008-0.015 0.008-0.015-0.008-0.008-0.015z"></path>
<path fill="#f8f8f8" style="fill: var(--color8, #f8f8f8)" d="M18.807 14.681l-0.155 0.163c0.039 0.008 0.078 0.023 0.101 0.054 0.039 0.039 0.062 0.093 0.062 0.147s-0.023 0.109-0.062 0.147c-0.039 0.039-0.093 0.062-0.147 0.062s-0.101-0.023-0.147-0.062c-0.008-0.008-0.008-0.023 0-0.031s0.023-0.008 0.031 0c0.031 0.031 0.070 0.047 0.116 0.047 0.039 0 0.085-0.016 0.116-0.047s0.047-0.070 0.047-0.116c0-0.039-0.015-0.085-0.047-0.116s-0.070-0.046-0.116-0.046c-0.008 0-0.015 0-0.015-0.008-0.008-0.008-0.008-0.023 0-0.031l0.147-0.155h-0.233c-0.015 0-0.023-0.008-0.023-0.023s0.008-0.023 0.023-0.023h0.279c0.015 0 0.023 0.008 0.023 0.023 0.008 0 0.008 0 0 0.015 0.008-0.008 0.008-0.008 0 0z"></path>
<path fill="#f8f8f8" style="fill: var(--color8, #f8f8f8)" d="M19.319 15.116h-0.326c-0.008 0-0.008 0-0.015-0.008s-0.008-0.023 0-0.031l0.349-0.434c0.008-0.008 0.023-0.008 0.031 0l0.008 0.008v0.411h0.039c0.015 0 0.023 0.008 0.023 0.023 0 0.008-0.008 0.023-0.023 0.023h-0.039v0.101c0 0.008-0.008 0.023-0.023 0.023-0.008 0-0.023-0.008-0.023-0.023v-0.093zM19.319 15.077v-0.357l-0.287 0.357h0.287z"></path>
<path fill="#f8f8f8" style="fill: var(--color8, #f8f8f8)" d="M19.559 15.186c-0.008-0.008-0.008-0.023 0-0.031s0.023-0.008 0.031 0c0.031 0.031 0.070 0.046 0.116 0.046 0.039 0 0.085-0.015 0.116-0.046s0.047-0.070 0.047-0.116c0-0.039-0.016-0.085-0.047-0.116s-0.070-0.047-0.116-0.047c-0.039 0-0.085 0.015-0.116 0.047-0.008 0.008-0.023 0.008-0.031 0l-0.008-0.008v-0.008c0 0 0 0 0-0.008l0.031-0.24c0-0.008 0-0.015 0.008-0.015 0 0 0.008-0.008 0.016-0.008h0.279c0.015 0 0.023 0.008 0.023 0.023s-0.008 0.023-0.023 0.023h-0.264l-0.023 0.178c0.031-0.015 0.070-0.031 0.101-0.031 0.054 0 0.101 0.015 0.147 0.062 0.039 0.039 0.062 0.093 0.062 0.147s-0.016 0.109-0.062 0.147c-0.039 0.039-0.093 0.062-0.147 0.062-0.047-0.008-0.101-0.023-0.14-0.062z"></path>
<path fill="#f8f8f8" style="fill: var(--color8, #f8f8f8)" d="M20.133 14.767c0.039-0.070 0.109-0.124 0.209-0.132 0.008 0 0.023 0.008 0.023 0.023s-0.008 0.023-0.023 0.023c-0.085 0-0.14 0.047-0.178 0.109-0.023 0.039-0.031 0.078-0.046 0.124 0.039-0.039 0.093-0.070 0.147-0.070 0.109 0 0.202 0.085 0.202 0.202 0 0.109-0.085 0.202-0.202 0.202-0.109 0-0.194-0.085-0.202-0.194 0-0.015 0-0.023 0-0.039 0.008-0.085 0.023-0.178 0.070-0.248zM20.118 15.046c0 0.008 0 0.008 0 0.008v0.008c0.008 0.078 0.078 0.14 0.155 0.14 0.085 0 0.155-0.070 0.155-0.155s-0.070-0.155-0.163-0.155c-0.078-0.008-0.147 0.062-0.147 0.155z"></path>
<path fill="#263238" style="fill: var(--color4, #263238)" d="M10.268 9.648c0-0.008 0.008-0.023 0.023-0.023h0.155c0.085 0 0.163 0.070 0.163 0.163 0 0.085-0.070 0.163-0.163 0.163h-0.14v0.225c0 0.008-0.008 0.023-0.023 0.023-0.008 0-0.023-0.008-0.023-0.023v-0.527h0.008zM10.447 9.92c0.070 0 0.124-0.054 0.124-0.124s-0.054-0.124-0.124-0.124h-0.14v0.248h0.14z"></path>
<path fill="#263238" style="fill: var(--color4, #263238)" d="M11.067 9.819v0.357c0 0.008-0.008 0.023-0.023 0.023-0.008 0-0.023-0.008-0.023-0.023v-0.062c-0.031 0.047-0.085 0.078-0.147 0.078-0.101 0-0.186-0.093-0.186-0.202s0.085-0.202 0.186-0.202c0.062 0 0.116 0.031 0.147 0.078v-0.062c0-0.008 0.008-0.023 0.023-0.023 0.015 0.023 0.023 0.031 0.023 0.039zM11.028 9.997c0-0.085-0.070-0.163-0.147-0.163s-0.147 0.070-0.147 0.163c0 0.085 0.070 0.163 0.147 0.163s0.147-0.070 0.147-0.163z"></path>
<path fill="#263238" style="fill: var(--color4, #263238)" d="M11.23 9.819c0-0.008 0.008-0.015 0.015-0.015s0.023 0.008 0.023 0.015v0.217c0 0.070 0.054 0.124 0.124 0.124s0.124-0.054 0.124-0.124v-0.225l0.008-0.008c0 0 0.008 0 0.008 0.008l0.008 0.008v0.357c0 0.101-0.085 0.186-0.186 0.186-0.031 0-0.054-0.008-0.085-0.015-0.008-0.008-0.015-0.015-0.008-0.023s0.015-0.015 0.023-0.008c0.023 0.008 0.039 0.015 0.062 0.015 0.085 0 0.147-0.062 0.147-0.147v-0.023c-0.031 0.031-0.070 0.054-0.124 0.054-0.085 0-0.163-0.070-0.163-0.163v-0.233h0.023z"></path>
<path fill="#263238" style="fill: var(--color4, #263238)" d="M12.3 9.966c0-0.070-0.054-0.124-0.124-0.124s-0.124 0.054-0.124 0.124v0.217c0 0.008-0.008 0.008-0.008 0.008h-0.008c0 0 0 0-0.008 0v-0.217c0-0.070-0.054-0.124-0.124-0.124s-0.124 0.054-0.124 0.124v0.217c0 0.008 0 0.015-0.008 0.015 0 0 0 0-0.008 0s-0.015-0.008-0.015-0.015v-0.372c0-0.008 0.008-0.015 0.015-0.015s0.023 0.008 0.023 0.015v0.039c0.031-0.031 0.070-0.054 0.124-0.054 0.062 0 0.116 0.031 0.14 0.085 0.031-0.047 0.085-0.085 0.14-0.085 0.085 0 0.163 0.070 0.163 0.163v0.217c0 0.008-0.008 0.015-0.023 0.015-0.008 0-0.015-0.008-0.015-0.015v-0.217h-0.015z"></path>
<path fill="#263238" style="fill: var(--color4, #263238)" d="M12.479 10.005c0-0.109 0.085-0.202 0.194-0.202 0.101 0 0.186 0.078 0.194 0.186 0 0.008-0.008 0.015-0.023 0.015h-0.326c0.008 0.085 0.070 0.155 0.155 0.155 0.054 0 0.101-0.031 0.124-0.070 0.008-0.008 0.016-0.008 0.023-0.008 0.008 0.008 0.015 0.015 0.008 0.031-0.031 0.054-0.093 0.093-0.163 0.093-0.101-0.008-0.186-0.093-0.186-0.202zM12.517 9.966h0.302c-0.015-0.078-0.078-0.132-0.147-0.132-0.078 0.008-0.14 0.062-0.155 0.132z"></path>
<path fill="#263238" style="fill: var(--color4, #263238)" d="M13.285 9.966c0-0.070-0.054-0.124-0.124-0.124s-0.124 0.054-0.124 0.124v0.217c0 0 0 0.008-0.008 0.008 0 0.008-0.008 0.008-0.015 0.008h-0.008c-0.008 0-0.008-0.008-0.015-0.008v-0.365c0-0.008 0.008-0.023 0.023-0.023 0.008 0 0.015 0.008 0.015 0.023v0.039c0.031-0.031 0.070-0.054 0.124-0.054 0.085 0 0.163 0.070 0.163 0.163v0.217c0 0.008-0.008 0.023-0.023 0.023-0.008 0-0.023-0.008-0.023-0.023v-0.225h0.016z"></path>
<path fill="#263238" style="fill: var(--color4, #263238)" d="M13.634 9.819c0 0.008-0.008 0.023-0.023 0.023h-0.047v0.287c0 0.023 0.023 0.031 0.031 0.031s0.023 0.008 0.023 0.023c0 0.008-0.008 0.023-0.023 0.023-0.039 0-0.070-0.031-0.070-0.070v-0.287h-0.047c-0.023 0-0.023-0.008-0.023-0.023 0-0.008 0-0.023 0.023-0.023h0.047v-0.147c0-0.008 0.008-0.023 0.023-0.023 0.008 0 0.023 0.008 0.023 0.023v0.147h0.054c0 0 0.008 0.008 0.008 0.015z"></path>
<path fill="#263238" style="fill: var(--color4, #263238)" d="M14.627 9.966c0-0.070-0.054-0.124-0.124-0.124s-0.124 0.054-0.124 0.124v0.217c0 0.008-0.008 0.008-0.008 0.008h-0.008c0 0 0 0-0.008 0v-0.217c0-0.070-0.054-0.124-0.124-0.124s-0.124 0.054-0.124 0.124v0.217c0 0.008 0 0.015-0.008 0.015 0 0 0 0-0.008 0s-0.015-0.008-0.015-0.015v-0.372c0-0.008 0.008-0.015 0.015-0.015s0.023 0.008 0.023 0.015v0.039c0.031-0.031 0.070-0.054 0.124-0.054 0.062 0 0.116 0.031 0.14 0.085 0.031-0.047 0.085-0.085 0.14-0.085 0.085 0 0.163 0.070 0.163 0.163v0.217c0 0.008-0.008 0.015-0.023 0.015-0.008 0-0.015-0.008-0.015-0.015v-0.217h-0.015z"></path>
<path fill="#263238" style="fill: var(--color4, #263238)" d="M14.805 10.005c0-0.109 0.085-0.202 0.194-0.202 0.101 0 0.186 0.078 0.194 0.186 0 0.008-0.008 0.015-0.023 0.015h-0.326c0.008 0.085 0.070 0.155 0.155 0.155 0.054 0 0.101-0.031 0.124-0.070 0.008-0.008 0.015-0.008 0.023-0.008 0.008 0.008 0.015 0.015 0.008 0.031-0.031 0.054-0.093 0.093-0.163 0.093-0.101-0.008-0.186-0.093-0.186-0.202zM14.844 9.966h0.303c-0.016-0.078-0.078-0.132-0.147-0.132-0.078 0.008-0.14 0.062-0.155 0.132z"></path>
<path fill="#263238" style="fill: var(--color4, #263238)" d="M15.433 9.819c0 0.008-0.008 0.023-0.023 0.023h-0.054v0.287c0 0.023 0.023 0.031 0.031 0.031s0.023 0.008 0.023 0.023c0 0.008-0.008 0.023-0.023 0.023-0.039 0-0.070-0.031-0.070-0.070v-0.287h-0.047c-0.023 0-0.023-0.008-0.023-0.023 0-0.008 0-0.023 0.023-0.023h0.047v-0.147c0-0.008 0.008-0.023 0.023-0.023 0.008 0 0.023 0.008 0.023 0.023v0.147h0.054c0.008 0 0.015 0.008 0.015 0.015z"></path>
<path fill="#263238" style="fill: var(--color4, #263238)" d="M15.891 9.958c0-0.070-0.054-0.116-0.124-0.116s-0.124 0.047-0.124 0.116v0.217c0 0.008-0.008 0.008-0.015 0.008s-0.008 0-0.015-0.008v-0.543c0-0.008 0.008-0.023 0.023-0.023 0.008 0 0.023 0.008 0.023 0.023v0.209c0.031-0.039 0.078-0.062 0.124-0.062 0.093 0 0.163 0.062 0.163 0.155v0.217c0 0.008-0.008 0.023-0.023 0.023-0.008 0-0.015-0.008-0.015-0.023v-0.194h-0.016z"></path>
<path fill="#263238" style="fill: var(--color4, #263238)" d="M16.271 9.803c0.101 0 0.186 0.093 0.186 0.202s-0.085 0.202-0.186 0.202c-0.101 0-0.186-0.093-0.186-0.202-0.008-0.109 0.078-0.202 0.186-0.202zM16.271 10.16c0.078 0 0.147-0.070 0.147-0.163 0-0.085-0.070-0.163-0.147-0.163s-0.147 0.070-0.147 0.163c-0.008 0.093 0.062 0.163 0.147 0.163z"></path>
<path fill="#263238" style="fill: var(--color4, #263238)" d="M16.922 10.121c-0.031 0.047-0.093 0.078-0.155 0.078-0.109 0-0.194-0.085-0.194-0.194s0.085-0.202 0.194-0.202c0.062 0 0.116 0.031 0.155 0.078v-0.225c0-0.008 0.008-0.023 0.023-0.023 0.008 0 0.015 0.008 0.015 0.023v0.527c0 0.008-0.008 0.023-0.015 0.023s-0.023-0.008-0.023-0.023v-0.062zM16.922 10.005v-0.015c0-0.085-0.070-0.155-0.155-0.155s-0.155 0.070-0.155 0.163c0 0.085 0.070 0.155 0.155 0.155 0.085 0.008 0.155-0.062 0.155-0.147z"></path>
<path fill="#263238" style="fill: var(--color4, #263238)" d="M10.415 5.856h-0.171c-0.008 0-0.023-0.008-0.023-0.023 0-0.008 0.008-0.023 0.023-0.023h0.38c0.008 0 0.023 0.008 0.023 0.023 0 0.008-0.008 0.023-0.023 0.023h-0.171v0.504c0 0.008-0.008 0.023-0.023 0.023-0.008 0-0.023-0.008-0.023-0.023v-0.504h0.008z"></path>
<path fill="#263238" style="fill: var(--color4, #263238)" d="M10.842 5.987c0.101 0 0.186 0.093 0.186 0.202s-0.085 0.202-0.186 0.202c-0.101 0-0.186-0.093-0.186-0.202s0.085-0.202 0.186-0.202zM10.842 6.344c0.078 0 0.147-0.070 0.147-0.163 0-0.085-0.070-0.163-0.147-0.163s-0.147 0.070-0.147 0.163c0 0.093 0.070 0.163 0.147 0.163z"></path>
<path fill="#263238" style="fill: var(--color4, #263238)" d="M11.307 6.011c0 0.008-0.008 0.023-0.023 0.023h-0.047v0.287c0 0.023 0.023 0.031 0.031 0.031s0.023 0.008 0.023 0.023c0 0.008-0.008 0.023-0.023 0.023-0.039 0-0.070-0.031-0.070-0.070v-0.287h-0.047c-0.023 0-0.023-0.008-0.023-0.023 0-0.008 0-0.023 0.023-0.023h0.047v-0.147c0-0.008 0.008-0.023 0.023-0.023 0.008 0 0.023 0.008 0.023 0.023v0.147h0.054c-0.008-0.008 0.008 0.008 0.008 0.016z"></path>
<path fill="#263238" style="fill: var(--color4, #263238)" d="M11.796 6.011v0.357c0 0.008-0.008 0.023-0.023 0.023-0.008 0-0.023-0.008-0.023-0.023v-0.062c-0.031 0.047-0.085 0.078-0.147 0.078-0.101 0-0.186-0.093-0.186-0.202s0.085-0.202 0.186-0.202c0.062 0 0.116 0.031 0.147 0.078v-0.062c0-0.008 0.008-0.023 0.023-0.023 0.015 0.016 0.023 0.023 0.023 0.039zM11.757 6.189c0-0.085-0.070-0.163-0.147-0.163s-0.147 0.070-0.147 0.163c0 0.085 0.070 0.163 0.147 0.163 0.085-0.008 0.147-0.078 0.147-0.163z"></path>
<path fill="#263238" style="fill: var(--color4, #263238)" d="M11.982 5.84c0-0.008 0.008-0.023 0.023-0.023 0.008 0 0.023 0.008 0.023 0.023v0.527c0 0.008-0.008 0.023-0.023 0.023-0.008 0-0.023-0.008-0.023-0.023v-0.527z"></path>
<path fill="#263238" style="fill: var(--color4, #263238)" d="M12.424 6.197v-0.186c0-0.008 0.008-0.023 0.023-0.023 0.008 0 0.023 0.008 0.023 0.023v0.054c0.031-0.047 0.085-0.078 0.147-0.078 0.109 0 0.194 0.085 0.194 0.194s-0.085 0.194-0.194 0.194c-0.062 0-0.116-0.031-0.147-0.078v0.225c0 0.008-0.008 0.023-0.023 0.023-0.008 0-0.023-0.008-0.023-0.023v-0.326zM12.463 6.189c0 0.085 0.070 0.155 0.147 0.155 0.085 0 0.155-0.070 0.155-0.155s-0.070-0.155-0.155-0.155c-0.078-0.008-0.14 0.062-0.147 0.155z"></path>
<path fill="#263238" style="fill: var(--color4, #263238)" d="M12.959 6.011c0-0.008 0.008-0.023 0.023-0.023 0.008 0 0.015 0.008 0.015 0.023v0.085c0 0 0-0.008 0.008-0.008 0.031-0.047 0.085-0.101 0.155-0.101 0.008 0 0.023 0.008 0.023 0.023 0 0.008-0.008 0.023-0.023 0.023-0.054 0-0.085 0.031-0.116 0.062-0.023 0.039-0.039 0.078-0.046 0.093v0.178c0 0.008-0.008 0.023-0.015 0.023s-0.023-0.008-0.023-0.023v-0.357z"></path>
<path fill="#263238" style="fill: var(--color4, #263238)" d="M13.316 5.879c0-0.008 0.008-0.023 0.023-0.023 0.008 0 0.023 0.008 0.023 0.023v0.016c0 0.008-0.008 0.023-0.023 0.023-0.008 0-0.023-0.008-0.023-0.023v-0.016zM13.316 6.011c0-0.008 0.008-0.023 0.023-0.023 0.008 0 0.023 0.008 0.023 0.023v0.357c0 0.008-0.008 0.023-0.023 0.023-0.008 0-0.023-0.008-0.023-0.023v-0.357z"></path>
<path fill="#263238" style="fill: var(--color4, #263238)" d="M13.51 6.189c0-0.109 0.093-0.194 0.202-0.194 0.047 0 0.093 0.016 0.124 0.047 0.008 0.008 0.008 0.016 0 0.023s-0.015 0.008-0.023 0c-0.031-0.023-0.062-0.039-0.101-0.039-0.093 0-0.163 0.070-0.163 0.163 0 0.085 0.070 0.163 0.163 0.163 0.039 0 0.078-0.016 0.101-0.031 0.008-0.008 0.023-0.008 0.023 0 0.008 0.008 0.008 0.023-0.008 0.031-0.031 0.023-0.078 0.039-0.124 0.039-0.101-0.008-0.194-0.093-0.194-0.202z"></path>
<path fill="#263238" style="fill: var(--color4, #263238)" d="M13.968 6.189c0-0.109 0.085-0.202 0.194-0.202 0.101 0 0.186 0.078 0.194 0.186 0 0.008-0.008 0.016-0.023 0.016h-0.326c0.008 0.085 0.070 0.155 0.155 0.155 0.054 0 0.101-0.031 0.124-0.070 0.008-0.008 0.015-0.008 0.023-0.008 0.008 0.008 0.015 0.016 0.008 0.031-0.031 0.054-0.093 0.093-0.163 0.093-0.101-0.008-0.186-0.093-0.186-0.202zM14.006 6.158h0.302c-0.015-0.078-0.078-0.132-0.147-0.132-0.077 0-0.14 0.054-0.155 0.132z"></path>
<path fill="#24cca7" style="fill: var(--color2, #24cca7)" d="M10.733 6.91c0.039 0 0.070 0.031 0.070 0.070v0.039c0.093 0.008 0.178 0.039 0.248 0.085 0.023 0.016 0.047 0.039 0.047 0.078 0 0.047-0.039 0.085-0.093 0.085-0.015 0-0.031-0.008-0.047-0.016-0.054-0.031-0.109-0.062-0.171-0.070v0.31c0.248 0.062 0.349 0.163 0.349 0.333 0 0.178-0.14 0.295-0.349 0.318v0.101c0 0.039-0.031 0.070-0.070 0.070s-0.070-0.031-0.070-0.070v-0.101c-0.124-0.015-0.233-0.054-0.334-0.124-0.031-0.015-0.047-0.047-0.047-0.078 0-0.047 0.039-0.085 0.085-0.085 0.023 0 0.039 0.008 0.054 0.016 0.078 0.054 0.147 0.093 0.24 0.109v-0.318c-0.24-0.062-0.349-0.147-0.349-0.333 0-0.171 0.14-0.295 0.341-0.31v-0.039c0.023-0.039 0.054-0.070 0.093-0.070zM10.664 7.461v-0.287c-0.101 0.008-0.155 0.062-0.155 0.14 0 0.070 0.031 0.109 0.155 0.147zM10.796 7.686v0.295c0.101-0.008 0.163-0.062 0.163-0.14 0-0.070-0.039-0.116-0.163-0.155z"></path>
<path fill="#24cca7" style="fill: var(--color2, #24cca7)" d="M12.075 7.763c0 0.209-0.171 0.388-0.388 0.388s-0.388-0.171-0.388-0.388c0-0.132 0.070-0.256 0.171-0.326-0.031-0.047-0.054-0.101-0.054-0.163 0-0.147 0.116-0.264 0.271-0.264 0.147 0 0.264 0.116 0.264 0.264 0 0.062-0.023 0.116-0.054 0.163 0.109 0.070 0.178 0.186 0.178 0.326zM11.897 7.763c0-0.116-0.093-0.209-0.209-0.209s-0.209 0.093-0.209 0.209c0 0.116 0.093 0.209 0.209 0.209s0.209-0.101 0.209-0.209zM11.594 7.275c0 0.047 0.039 0.093 0.093 0.093 0.047 0 0.085-0.039 0.085-0.093 0-0.047-0.039-0.085-0.085-0.085-0.054 0-0.093 0.039-0.093 0.085z"></path>
<path fill="#24cca7" style="fill: var(--color2, #24cca7)" d="M12.331 7.407c0-0.217 0.178-0.396 0.396-0.396 0.202 0 0.372 0.155 0.388 0.349 0 0.031 0 0.062 0 0.093 0 0.109-0.016 0.225-0.054 0.333s-0.109 0.209-0.209 0.279c-0.070 0.047-0.147 0.070-0.241 0.078-0.047 0-0.093-0.039-0.093-0.085s0.039-0.085 0.085-0.093c0.062 0 0.109-0.023 0.155-0.047 0.039-0.031 0.078-0.062 0.101-0.116 0.008-0.016 0.015-0.031 0.023-0.039-0.047 0.023-0.101 0.031-0.155 0.031-0.225 0-0.396-0.171-0.396-0.388zM12.509 7.407c0 0.116 0.093 0.217 0.217 0.217 0.116 0 0.209-0.101 0.209-0.217s-0.093-0.209-0.209-0.209c-0.124-0.008-0.217 0.085-0.217 0.209z"></path>
<path fill="#24cca7" style="fill: var(--color2, #24cca7)" d="M13.37 8.291c0.078-0.023 0.116-0.078 0.109-0.147-0.046-0.015-0.093-0.054-0.093-0.109v-0.015c0-0.062 0.047-0.109 0.109-0.109 0.070 0 0.116 0.054 0.116 0.14v0.015c0 0.109-0.031 0.186-0.077 0.24-0.047 0.039-0.109 0.070-0.155 0.070-0.031 0-0.047-0.023-0.047-0.047 0-0.015 0.015-0.031 0.039-0.039z"></path>
<path fill="#24cca7" style="fill: var(--color2, #24cca7)" d="M13.727 7.407c0-0.217 0.178-0.396 0.396-0.396 0.202 0 0.372 0.155 0.388 0.349 0 0.031 0 0.062 0 0.093 0 0.109-0.015 0.225-0.054 0.333s-0.109 0.209-0.209 0.279c-0.070 0.047-0.147 0.070-0.24 0.078-0.047 0-0.093-0.039-0.093-0.085s0.039-0.085 0.085-0.093c0.062 0 0.109-0.023 0.155-0.047 0.039-0.031 0.078-0.062 0.101-0.116 0.008-0.016 0.016-0.031 0.023-0.039-0.046 0.023-0.101 0.031-0.155 0.031-0.217 0-0.396-0.171-0.396-0.388zM13.906 7.407c0 0.116 0.093 0.217 0.217 0.217 0.116 0 0.209-0.101 0.209-0.217s-0.093-0.209-0.209-0.209c-0.124-0.008-0.217 0.085-0.217 0.209z"></path>
<path fill="#24cca7" style="fill: var(--color2, #24cca7)" d="M14.766 7.407c0-0.217 0.178-0.396 0.396-0.396 0.202 0 0.372 0.155 0.388 0.349 0 0.031 0 0.062 0 0.093 0 0.109-0.015 0.225-0.054 0.333s-0.109 0.209-0.209 0.279c-0.070 0.047-0.147 0.070-0.24 0.078-0.047 0-0.093-0.039-0.093-0.085s0.039-0.085 0.085-0.093c0.062 0 0.109-0.023 0.155-0.047 0.039-0.031 0.078-0.062 0.101-0.116 0.008-0.016 0.015-0.031 0.023-0.039-0.047 0.023-0.101 0.031-0.155 0.031-0.217 0-0.396-0.171-0.396-0.388zM14.945 7.407c0 0.116 0.093 0.217 0.217 0.217 0.116 0 0.209-0.101 0.209-0.217s-0.093-0.209-0.209-0.209c-0.124-0.008-0.217 0.085-0.217 0.209z"></path>
<path fill="#263238" style="fill: var(--color4, #263238)" d="M13.014 3.676c0-0.008 0.008-0.023 0.023-0.023h0.155c0.085 0 0.163 0.070 0.163 0.163 0 0.085-0.070 0.163-0.163 0.163h-0.14v0.225c0 0.008-0.008 0.023-0.023 0.023-0.008 0-0.023-0.008-0.023-0.023v-0.527h0.008zM13.192 3.948c0.070 0 0.124-0.054 0.124-0.124s-0.054-0.124-0.124-0.124h-0.14v0.248h0.14z"></path>
<path fill="#263238" style="fill: var(--color4, #263238)" d="M13.805 3.847v0.357c0 0.008-0.008 0.023-0.023 0.023-0.008 0-0.023-0.008-0.023-0.023v-0.062c-0.031 0.047-0.085 0.078-0.147 0.078-0.101 0-0.186-0.093-0.186-0.202s0.085-0.202 0.186-0.202c0.062 0 0.116 0.031 0.147 0.078v-0.062c0-0.008 0.008-0.023 0.023-0.023 0.015 0.023 0.023 0.031 0.023 0.039zM13.766 4.025c0-0.085-0.070-0.163-0.147-0.163s-0.147 0.070-0.147 0.163c0 0.085 0.070 0.163 0.147 0.163 0.085 0 0.147-0.070 0.147-0.163z"></path>
<path fill="#263238" style="fill: var(--color4, #263238)" d="M13.968 3.847c0-0.008 0.008-0.015 0.015-0.015s0.023 0.008 0.023 0.015v0.217c0 0.070 0.054 0.124 0.124 0.124s0.124-0.054 0.124-0.124v-0.225l0.008-0.008c0 0 0.008 0 0.008 0.008l0.008 0.008v0.357c0 0.101-0.085 0.186-0.186 0.186-0.031 0-0.054-0.008-0.085-0.016-0.008-0.008-0.016-0.016-0.008-0.023s0.015-0.016 0.023-0.008c0.023 0.008 0.039 0.016 0.062 0.016 0.085 0 0.147-0.062 0.147-0.147v-0.023c-0.031 0.031-0.070 0.054-0.124 0.054-0.085 0-0.163-0.070-0.163-0.163v-0.233h0.023z"></path>
<path fill="#263238" style="fill: var(--color4, #263238)" d="M15.046 3.994c0-0.070-0.054-0.124-0.124-0.124s-0.124 0.054-0.124 0.124v0.217c0 0.008-0.008 0.008-0.008 0.008h-0.008c0 0 0 0-0.008 0v-0.217c0-0.070-0.054-0.124-0.124-0.124s-0.124 0.054-0.124 0.124v0.217c0 0.008 0 0.016-0.008 0.016 0 0 0 0-0.008 0s-0.015-0.008-0.015-0.016v-0.372c0-0.008 0.008-0.015 0.015-0.015s0.023 0.008 0.023 0.015v0.039c0.031-0.031 0.070-0.054 0.124-0.054 0.062 0 0.116 0.031 0.14 0.085 0.031-0.047 0.085-0.085 0.14-0.085 0.085 0 0.163 0.070 0.163 0.163v0.217c0 0.008-0.008 0.016-0.023 0.016-0.008 0-0.015-0.008-0.015-0.016v-0.217h-0.015z"></path>
<path fill="#263238" style="fill: var(--color4, #263238)" d="M15.216 4.025c0-0.109 0.085-0.202 0.194-0.202 0.101 0 0.186 0.078 0.194 0.186 0 0.008-0.008 0.016-0.023 0.016h-0.326c0.008 0.085 0.070 0.155 0.155 0.155 0.054 0 0.101-0.031 0.124-0.070 0.008-0.008 0.015-0.008 0.023-0.008 0.008 0.008 0.015 0.016 0.008 0.031-0.031 0.054-0.093 0.093-0.163 0.093-0.101 0-0.186-0.093-0.186-0.202zM15.263 3.994h0.303c-0.016-0.078-0.078-0.132-0.147-0.132-0.078 0.008-0.14 0.062-0.155 0.132z"></path>
<path fill="#263238" style="fill: var(--color4, #263238)" d="M16.023 3.994c0-0.070-0.054-0.124-0.124-0.124s-0.124 0.054-0.124 0.124v0.217c0 0 0 0.008-0.008 0.008 0 0.008-0.008 0.008-0.015 0.008h-0.008c-0.008 0-0.008-0.008-0.015-0.008v-0.365c0-0.008 0.008-0.023 0.023-0.023 0.008 0 0.015 0.008 0.015 0.023v0.039c0.031-0.031 0.070-0.054 0.124-0.054 0.085 0 0.163 0.070 0.163 0.163v0.217c0 0.008-0.008 0.023-0.023 0.023-0.008 0-0.015-0.008-0.015-0.023v-0.225h0.008z"></path>
<path fill="#263238" style="fill: var(--color4, #263238)" d="M16.38 3.847c0 0.008-0.008 0.023-0.023 0.023h-0.054v0.287c0 0.023 0.023 0.031 0.031 0.031s0.023 0.008 0.023 0.023c0 0.008-0.008 0.023-0.023 0.023-0.039 0-0.070-0.031-0.070-0.070v-0.287h-0.047c-0.015 0-0.015-0.008-0.015-0.023 0-0.008 0-0.023 0.015-0.023h0.047v-0.147c0-0.008 0.008-0.023 0.015-0.023s0.023 0.008 0.023 0.023v0.147h0.054c0.008 0 0.023 0.008 0.023 0.015z"></path>
<path fill="#263238" style="fill: var(--color4, #263238)" d="M16.837 4.227c-0.016 0-0.023-0.008-0.023-0.023v-0.527c0-0.008 0.008-0.023 0.023-0.023h0.101c0.155 0 0.287 0.124 0.287 0.287 0 0.155-0.124 0.279-0.287 0.279h-0.101v0.008zM16.938 4.188c0.132 0 0.241-0.109 0.241-0.24s-0.109-0.24-0.241-0.248h-0.085v0.489h0.085z"></path>
<path fill="#263238" style="fill: var(--color4, #263238)" d="M17.644 3.847v0.357c0 0.008-0.008 0.023-0.015 0.023s-0.023-0.008-0.023-0.023v-0.062c-0.031 0.047-0.085 0.078-0.147 0.078-0.101 0-0.186-0.093-0.186-0.202s0.085-0.202 0.186-0.202c0.062 0 0.116 0.031 0.147 0.078v-0.062c0-0.008 0.008-0.023 0.023-0.023 0.008 0.023 0.015 0.031 0.015 0.039zM17.605 4.025c0-0.085-0.070-0.163-0.147-0.163s-0.147 0.070-0.147 0.163c0 0.085 0.070 0.163 0.147 0.163 0.085 0 0.147-0.070 0.147-0.163z"></path>
<path fill="#263238" style="fill: var(--color4, #263238)" d="M17.954 3.847c0 0.008-0.008 0.023-0.023 0.023h-0.054v0.287c0 0.023 0.023 0.031 0.031 0.031s0.023 0.008 0.023 0.023c0 0.008-0.008 0.023-0.023 0.023-0.039 0-0.070-0.031-0.070-0.070v-0.287h-0.047c-0.015 0-0.015-0.008-0.015-0.023 0-0.008 0-0.023 0.015-0.023h0.047v-0.147c0-0.008 0.008-0.023 0.015-0.023s0.023 0.008 0.023 0.023v0.147h0.054c0.015 0 0.023 0.008 0.023 0.015z"></path>
<path fill="#263238" style="fill: var(--color4, #263238)" d="M18.45 3.847v0.357c0 0.008-0.008 0.023-0.023 0.023-0.008 0-0.015-0.008-0.015-0.023v-0.062c-0.031 0.047-0.085 0.078-0.147 0.078-0.101 0-0.186-0.093-0.186-0.202s0.085-0.202 0.186-0.202c0.062 0 0.116 0.031 0.147 0.078v-0.062c0-0.008 0.008-0.023 0.015-0.023 0.015 0.023 0.023 0.031 0.023 0.039zM18.412 4.025c0-0.085-0.070-0.163-0.147-0.163s-0.147 0.070-0.147 0.163c0 0.085 0.070 0.163 0.147 0.163s0.147-0.070 0.147-0.163z"></path>
<path fill="#4a56e2" style="fill: var(--color6, #4a56e2)" d="M10.625 4.173l-0.271-0.248 0.271-0.248 0.054 0.054-0.202 0.194 0.202 0.194-0.054 0.054z"></path>
<path fill="#4a56e2" style="fill: var(--color6, #4a56e2)" d="M10.578 4.359c-0.24 0-0.434-0.194-0.434-0.434s0.194-0.434 0.434-0.434c0.24 0 0.434 0.194 0.434 0.434s-0.194 0.434-0.434 0.434zM10.578 3.568c-0.194 0-0.357 0.155-0.357 0.357 0 0.194 0.155 0.357 0.357 0.357 0.194 0 0.357-0.155 0.357-0.357 0-0.194-0.163-0.357-0.357-0.357z"></path>
<path fill="#fff" style="fill: var(--color3, #fff)" d="M20.645 18.8l-0.326-0.504 0.14-0.093 0.202 0.326 0.644-0.807 0.124 0.101-0.783 0.977z"></path>
<path fill="#263238" style="fill: var(--color4, #263238)" d="M10.245 20.956c0.008-0.008 0.015-0.008 0.023 0 0.039 0.031 0.116 0.078 0.186 0.070 0.047 0 0.093-0.015 0.124-0.039s0.047-0.054 0.047-0.085-0.015-0.054-0.047-0.078c-0.031-0.023-0.078-0.039-0.132-0.047s-0.101-0.023-0.132-0.046-0.062-0.054-0.062-0.101c0-0.046 0.023-0.078 0.062-0.109 0.039-0.023 0.085-0.039 0.14-0.039 0.078 0 0.132 0.039 0.178 0.062 0.008 0.008 0.008 0.015 0.008 0.023-0.008 0.008-0.015 0.008-0.023 0.008-0.047-0.031-0.093-0.062-0.155-0.062-0.047 0-0.085 0.016-0.116 0.031-0.031 0.023-0.047 0.046-0.047 0.078s0.015 0.046 0.039 0.070c0.031 0.023 0.070 0.031 0.124 0.046 0.054 0.008 0.109 0.023 0.147 0.054 0.039 0.023 0.062 0.062 0.062 0.109s-0.023 0.085-0.062 0.116c-0.039 0.031-0.085 0.046-0.147 0.046-0.085 0-0.163-0.046-0.209-0.085-0.015 0-0.015-0.015-0.008-0.023z"></path>
<path fill="#263238" style="fill: var(--color4, #263238)" d="M11.137 20.692v0.357c0 0.008-0.008 0.023-0.023 0.023-0.008 0-0.023-0.008-0.023-0.023v-0.062c-0.031 0.047-0.085 0.078-0.147 0.078-0.101 0-0.186-0.093-0.186-0.202s0.085-0.202 0.186-0.202c0.062 0 0.116 0.031 0.147 0.077v-0.062c0-0.008 0.008-0.023 0.023-0.023 0.008 0.015 0.023 0.023 0.023 0.039zM11.098 20.871c0-0.085-0.070-0.163-0.147-0.163s-0.147 0.070-0.147 0.163c0 0.085 0.070 0.163 0.147 0.163 0.078-0.008 0.147-0.078 0.147-0.163z"></path>
<path fill="#263238" style="fill: var(--color4, #263238)" d="M11.416 21.064l-0.008-0.008-0.147-0.357c-0.008-0.008 0-0.023 0.008-0.023 0.008-0.008 0.023 0 0.023 0.008l0.132 0.31 0.132-0.31c0-0.008 0.015-0.015 0.023-0.008s0.015 0.015 0.008 0.023l-0.147 0.349c0 0 0 0.008-0.008 0.008 0 0.008-0.008 0.008-0.015 0.008 0.008 0 0.008 0 0 0z"></path>
<path fill="#263238" style="fill: var(--color4, #263238)" d="M11.703 20.871c0-0.109 0.085-0.202 0.194-0.202 0.101 0 0.186 0.078 0.194 0.186 0 0.008-0.008 0.015-0.023 0.015h-0.326c0.008 0.085 0.070 0.155 0.155 0.155 0.054 0 0.101-0.031 0.124-0.070 0.008-0.008 0.015-0.008 0.023-0.008 0.008 0.008 0.015 0.016 0.008 0.031-0.031 0.054-0.093 0.093-0.163 0.093-0.101-0.008-0.186-0.093-0.186-0.202zM11.749 20.84h0.302c-0.015-0.078-0.078-0.132-0.147-0.132-0.085 0-0.147 0.054-0.155 0.132z"></path>
<path fill="#263238" style="fill: var(--color4, #263238)" d="M12.44 20.863c0-0.109 0.093-0.194 0.202-0.194 0.047 0 0.093 0.015 0.124 0.047 0.008 0.008 0.008 0.015 0 0.023s-0.015 0.008-0.023 0c-0.031-0.023-0.062-0.039-0.101-0.039-0.093 0-0.163 0.070-0.163 0.163 0 0.085 0.070 0.163 0.163 0.163 0.039 0 0.078-0.015 0.101-0.031 0.008-0.008 0.023-0.008 0.023 0 0.008 0.008 0.008 0.023-0.008 0.031-0.031 0.023-0.078 0.039-0.124 0.039-0.101 0-0.194-0.085-0.194-0.202z"></path>
<path fill="#263238" style="fill: var(--color4, #263238)" d="M13.262 20.692v0.357c0 0.008-0.008 0.023-0.023 0.023-0.008 0-0.023-0.008-0.023-0.023v-0.062c-0.031 0.047-0.085 0.078-0.147 0.078-0.101 0-0.186-0.093-0.186-0.202s0.085-0.202 0.186-0.202c0.062 0 0.116 0.031 0.147 0.077v-0.062c0-0.008 0.008-0.023 0.023-0.023 0.015 0.015 0.023 0.023 0.023 0.039zM13.223 20.871c0-0.085-0.070-0.163-0.147-0.163s-0.147 0.070-0.147 0.163c0 0.085 0.070 0.163 0.147 0.163 0.085-0.008 0.147-0.078 0.147-0.163z"></path>
<path fill="#263238" style="fill: var(--color4, #263238)" d="M13.432 20.692c0-0.008 0.008-0.023 0.023-0.023 0.008 0 0.015 0.008 0.015 0.023v0.085c0 0 0-0.008 0.008-0.008 0.031-0.047 0.085-0.101 0.155-0.101 0.008 0 0.023 0.008 0.023 0.023 0 0.008-0.008 0.015-0.023 0.015-0.054 0-0.085 0.031-0.116 0.062-0.023 0.039-0.039 0.078-0.046 0.093v0.178c0 0.008-0.008 0.023-0.015 0.023s-0.023-0.008-0.023-0.023v-0.349z"></path>
<path fill="#263238" style="fill: var(--color4, #263238)" d="M14.084 20.987c-0.031 0.047-0.093 0.078-0.155 0.078-0.109 0-0.194-0.085-0.194-0.194s0.085-0.202 0.194-0.202c0.062 0 0.116 0.031 0.155 0.078v-0.225c0-0.008 0.008-0.015 0.023-0.015 0.008 0 0.023 0.008 0.023 0.015v0.527c0 0.008-0.008 0.023-0.023 0.023-0.008 0-0.023-0.008-0.023-0.023v-0.062zM14.084 20.878v-0.015c0-0.085-0.070-0.155-0.155-0.155s-0.155 0.070-0.155 0.163c0 0.085 0.070 0.155 0.155 0.155s0.155-0.070 0.155-0.147z"></path>
<path fill="#263238" style="fill: var(--color4, #263238)" d="M14.828 20.832c0-0.070-0.054-0.124-0.124-0.124s-0.124 0.054-0.124 0.124v0.217c0 0 0 0.008-0.008 0.008 0 0.008-0.008 0.008-0.015 0.008h-0.008c-0.008 0-0.008-0.008-0.015-0.008v-0.365c0-0.008 0.008-0.023 0.023-0.023 0.008 0 0.015 0.008 0.015 0.023v0.039c0.031-0.031 0.070-0.054 0.124-0.054 0.085 0 0.163 0.070 0.163 0.163v0.217c0 0.008-0.008 0.023-0.023 0.023-0.008 0-0.023-0.008-0.023-0.023v-0.225h0.015z"></path>
<path fill="#263238" style="fill: var(--color4, #263238)" d="M15.038 20.684c0-0.008 0.008-0.015 0.023-0.015 0.008 0 0.023 0.008 0.023 0.015v0.217c0 0.070 0.054 0.124 0.124 0.124s0.124-0.054 0.124-0.124v-0.217c0-0.008 0.008-0.015 0.023-0.015 0.008 0 0.023 0.008 0.023 0.015v0.217c0 0.085-0.070 0.163-0.163 0.163-0.085 0-0.163-0.070-0.163-0.163v-0.217h-0.015z"></path>
<path fill="#263238" style="fill: var(--color4, #263238)" d="M16.108 20.832c0-0.070-0.054-0.124-0.124-0.124s-0.124 0.054-0.124 0.124v0.217c0 0.008-0.008 0.008-0.008 0.008h-0.008c0 0 0 0-0.008 0v-0.217c0-0.070-0.054-0.124-0.124-0.124s-0.124 0.054-0.124 0.124v0.217c0 0.008 0 0.015-0.008 0.015 0 0 0 0-0.008 0s-0.015-0.008-0.015-0.015v-0.372c0-0.008 0.008-0.015 0.015-0.015s0.023 0.008 0.023 0.015v0.039c0.031-0.031 0.070-0.054 0.124-0.054 0.062 0 0.116 0.031 0.14 0.085 0.031-0.047 0.085-0.085 0.14-0.085 0.085 0 0.163 0.070 0.163 0.163v0.217c0 0.008-0.008 0.015-0.023 0.015-0.008 0-0.015-0.008-0.015-0.015v-0.217h-0.015z"></path>
<path fill="#263238" style="fill: var(--color4, #263238)" d="M16.31 20.878v-0.357c0-0.008 0.008-0.015 0.015-0.015s0.023 0.008 0.023 0.015v0.225c0.031-0.047 0.093-0.078 0.155-0.078 0.109 0 0.194 0.085 0.194 0.202 0 0.109-0.085 0.194-0.194 0.194-0.062 0-0.116-0.031-0.155-0.078v0.054c0 0.008-0.008 0.023-0.023 0.023-0.008 0-0.015-0.008-0.015-0.023v-0.163zM16.349 20.871c0 0.085 0.070 0.155 0.155 0.155s0.155-0.070 0.155-0.155c0-0.085-0.070-0.163-0.155-0.163s-0.147 0.070-0.155 0.163z"></path>
<path fill="#263238" style="fill: var(--color4, #263238)" d="M16.814 20.871c0-0.109 0.085-0.202 0.194-0.202 0.101 0 0.186 0.078 0.194 0.186 0 0.008-0.008 0.015-0.023 0.015h-0.326c0.008 0.085 0.070 0.155 0.155 0.155 0.054 0 0.101-0.031 0.124-0.070 0.008-0.008 0.015-0.008 0.023-0.008 0.008 0.008 0.015 0.016 0.008 0.031-0.031 0.054-0.093 0.093-0.163 0.093-0.101-0.008-0.186-0.093-0.186-0.202zM16.86 20.84h0.302c-0.015-0.078-0.078-0.132-0.147-0.132-0.078 0-0.14 0.054-0.155 0.132z"></path>
<path fill="#263238" style="fill: var(--color4, #263238)" d="M17.318 20.692c0-0.008 0.008-0.023 0.023-0.023 0.008 0 0.015 0.008 0.015 0.023v0.085c0 0 0-0.008 0.008-0.008 0.031-0.047 0.085-0.101 0.155-0.101 0.008 0 0.015 0.008 0.015 0.023 0 0.008-0.008 0.015-0.015 0.015-0.054 0-0.085 0.031-0.116 0.062-0.023 0.039-0.039 0.078-0.047 0.093v0.178c0 0.008-0.008 0.023-0.015 0.023s-0.023-0.008-0.023-0.023v-0.349z"></path>
<path fill="#4a56e2" style="fill: var(--color6, #4a56e2)" opacity="0.5" d="M20.73 21.212h-1.086c-0.217 0-0.403-0.178-0.403-0.403v-0.039c0-0.217 0.178-0.403 0.403-0.403h1.086c0.217 0 0.403 0.178 0.403 0.403v0.039c-0.008 0.225-0.186 0.403-0.403 0.403z"></path>
<path fill="#24cca7" style="fill: var(--color2, #24cca7)" d="M19.513 23.166h-7.554c-0.424 0-0.768 0.344-0.768 0.768v0.209c0 0.424 0.344 0.768 0.768 0.768h7.554c0.424 0 0.768-0.344 0.768-0.768v-0.209c0-0.424-0.344-0.768-0.768-0.768z"></path>
<path fill="#fff" style="fill: var(--color3, #fff)" d="M11.974 23.709c0-0.008 0.008-0.023 0.023-0.023h0.155c0.085 0 0.163 0.070 0.163 0.163s-0.070 0.163-0.163 0.163h-0.14v0.225c0 0.008-0.008 0.015-0.023 0.015-0.008 0-0.023-0.008-0.023-0.015v-0.527h0.008zM12.153 23.973c0.070 0 0.124-0.054 0.124-0.124s-0.054-0.124-0.124-0.124h-0.14v0.248h0.14z"></path>
<path fill="#fff" style="fill: var(--color3, #fff)" d="M12.44 23.88c0-0.008 0.008-0.015 0.023-0.015 0.008 0 0.015 0.008 0.015 0.015v0.085c0 0 0-0.008 0.008-0.008 0.031-0.047 0.085-0.101 0.155-0.101 0.008 0 0.023 0.008 0.023 0.015s-0.008 0.023-0.023 0.023c-0.054 0-0.085 0.031-0.116 0.062-0.023 0.039-0.039 0.078-0.047 0.093v0.178c0 0.008-0.008 0.015-0.015 0.015s-0.023-0.008-0.023-0.015v-0.349z"></path>
<path fill="#fff" style="fill: var(--color3, #fff)" d="M12.944 23.857c0.101 0 0.186 0.093 0.186 0.202s-0.085 0.202-0.186 0.202c-0.101 0-0.186-0.093-0.186-0.202-0.008-0.109 0.078-0.202 0.186-0.202zM12.944 24.213c0.077 0 0.147-0.070 0.147-0.163 0-0.085-0.070-0.163-0.147-0.163s-0.147 0.070-0.147 0.163 0.062 0.163 0.147 0.163z"></path>
<path fill="#fff" style="fill: var(--color3, #fff)" d="M13.254 24.058c0-0.109 0.093-0.194 0.202-0.194 0.046 0 0.093 0.016 0.124 0.047 0.008 0.008 0.008 0.015 0 0.023s-0.015 0.008-0.023 0c-0.031-0.023-0.062-0.039-0.101-0.039-0.093 0-0.163 0.070-0.163 0.163 0 0.085 0.070 0.163 0.163 0.163 0.039 0 0.077-0.016 0.101-0.031 0.008-0.008 0.023-0.008 0.023 0 0.008 0.008 0.008 0.023-0.008 0.031-0.031 0.023-0.078 0.039-0.124 0.039-0.109-0.008-0.194-0.093-0.194-0.202z"></path>
<path fill="#fff" style="fill: var(--color3, #fff)" d="M13.704 24.058c0-0.109 0.085-0.202 0.194-0.202 0.101 0 0.186 0.078 0.194 0.186 0 0.008-0.008 0.015-0.023 0.015h-0.326c0.008 0.085 0.070 0.155 0.155 0.155 0.054 0 0.101-0.031 0.124-0.070 0.008-0.008 0.015-0.008 0.023-0.008 0.008 0.008 0.015 0.015 0.008 0.031-0.031 0.054-0.093 0.093-0.163 0.093-0.101-0.008-0.186-0.093-0.186-0.202zM13.743 24.027h0.303c-0.016-0.078-0.078-0.132-0.147-0.132-0.078 0-0.14 0.054-0.155 0.132z"></path>
<path fill="#fff" style="fill: var(--color3, #fff)" d="M14.193 24.058c0-0.109 0.085-0.202 0.194-0.202 0.101 0 0.186 0.078 0.194 0.186 0 0.008-0.008 0.015-0.023 0.015h-0.326c0.008 0.085 0.070 0.155 0.155 0.155 0.054 0 0.101-0.031 0.124-0.070 0.008-0.008 0.015-0.008 0.023-0.008 0.008 0.008 0.015 0.015 0.008 0.031-0.031 0.054-0.093 0.093-0.163 0.093-0.101-0.008-0.186-0.093-0.186-0.202zM14.239 24.027h0.302c-0.015-0.078-0.078-0.132-0.147-0.132-0.085 0-0.147 0.054-0.155 0.132z"></path>
<path fill="#fff" style="fill: var(--color3, #fff)" d="M15.030 24.174c-0.031 0.047-0.093 0.078-0.155 0.078-0.109 0-0.194-0.085-0.194-0.194s0.085-0.202 0.194-0.202c0.062 0 0.116 0.031 0.155 0.078v-0.225c0-0.008 0.008-0.023 0.023-0.023 0.008 0 0.023 0.008 0.023 0.023v0.527c0 0.008-0.008 0.015-0.023 0.015-0.008 0-0.023-0.008-0.023-0.015v-0.062zM15.030 24.066v-0.015c0-0.085-0.070-0.155-0.155-0.155s-0.155 0.070-0.155 0.163c0 0.085 0.070 0.155 0.155 0.155s0.155-0.070 0.155-0.147z"></path>
<path fill="#fff" style="fill: var(--color3, #fff)" d="M15.635 23.88c0 0.008-0.008 0.023-0.023 0.023h-0.054v0.287c0 0.023 0.023 0.031 0.031 0.031s0.023 0.008 0.023 0.023c0 0.008-0.008 0.016-0.023 0.016-0.039 0-0.070-0.031-0.070-0.070v-0.287h-0.047c-0.023 0-0.023-0.008-0.023-0.023 0-0.008 0-0.023 0.023-0.023h0.047v-0.147c0-0.008 0.008-0.023 0.023-0.023 0.008 0 0.023 0.008 0.023 0.023v0.147h0.054c0 0 0.015 0.008 0.015 0.023z"></path>
<path fill="#fff" style="fill: var(--color3, #fff)" d="M15.976 23.857c0.101 0 0.186 0.093 0.186 0.202s-0.085 0.202-0.186 0.202c-0.101 0-0.186-0.093-0.186-0.202s0.078-0.202 0.186-0.202zM15.976 24.213c0.078 0 0.147-0.070 0.147-0.163 0-0.085-0.070-0.163-0.147-0.163s-0.147 0.070-0.147 0.163c0 0.093 0.062 0.163 0.147 0.163z"></path>
<path fill="#fff" style="fill: var(--color3, #fff)" d="M16.527 24.058c0-0.109 0.093-0.194 0.202-0.194 0.047 0 0.093 0.016 0.124 0.047 0.008 0.008 0.008 0.015 0 0.023s-0.016 0.008-0.023 0c-0.031-0.023-0.062-0.039-0.101-0.039-0.093 0-0.163 0.070-0.163 0.163 0 0.085 0.070 0.163 0.163 0.163 0.039 0 0.078-0.016 0.101-0.031 0.008-0.008 0.023-0.008 0.023 0 0.008 0.008 0.008 0.023-0.008 0.031-0.031 0.023-0.078 0.039-0.124 0.039-0.101-0.008-0.194-0.093-0.194-0.202z"></path>
<path fill="#fff" style="fill: var(--color3, #fff)" d="M17.171 23.857c0.101 0 0.186 0.093 0.186 0.202s-0.085 0.202-0.186 0.202-0.186-0.093-0.186-0.202c0-0.109 0.085-0.202 0.186-0.202zM17.171 24.213c0.078 0 0.147-0.070 0.147-0.163 0-0.085-0.070-0.163-0.147-0.163s-0.147 0.070-0.147 0.163c0 0.093 0.070 0.163 0.147 0.163z"></path>
<path fill="#fff" style="fill: var(--color3, #fff)" d="M17.791 24.019c0-0.070-0.054-0.124-0.124-0.124s-0.124 0.054-0.124 0.124v0.217c0 0 0 0.008-0.008 0.008 0 0.008-0.008 0.008-0.016 0.008h-0.008c-0.008 0-0.008-0.008-0.015-0.008v-0.364c0-0.008 0.008-0.016 0.015-0.016s0.015 0.008 0.015 0.016v0.039c0.031-0.031 0.070-0.054 0.124-0.054 0.085 0 0.163 0.070 0.163 0.163v0.217c0 0.008-0.008 0.016-0.023 0.016-0.008 0-0.015-0.008-0.015-0.016v-0.225h0.015z"></path>
<path fill="#fff" style="fill: var(--color3, #fff)" d="M18.179 23.709c0 0.008-0.008 0.023-0.015 0.023-0.031 0-0.039 0.008-0.047 0.016s-0.015 0.031-0.015 0.062v0.039h0.054c0.008 0 0.023 0.008 0.023 0.016s-0.008 0.023-0.023 0.023h-0.054v0.341c0 0.008-0.008 0.015-0.023 0.015-0.008 0-0.023-0.008-0.023-0.015v-0.341h-0.054c-0.008 0-0.023-0.008-0.023-0.023 0-0.008 0.008-0.016 0.023-0.016h0.054v-0.039c0-0.039 0.008-0.070 0.023-0.093s0.047-0.031 0.078-0.031c0.015 0 0.023 0.008 0.023 0.023z"></path>
<path fill="#fff" style="fill: var(--color3, #fff)" d="M18.303 23.748c0-0.008 0.008-0.023 0.023-0.023 0.008 0 0.023 0.008 0.023 0.023v0.015c0 0.008-0.008 0.023-0.023 0.023-0.008 0-0.023-0.008-0.023-0.023v-0.015zM18.303 23.88c0-0.008 0.008-0.023 0.023-0.023 0.008 0 0.023 0.008 0.023 0.023v0.357c0 0.008-0.008 0.015-0.023 0.015-0.008 0-0.023-0.008-0.023-0.015v-0.357z"></path>
<path fill="#fff" style="fill: var(--color3, #fff)" d="M18.528 23.88c0-0.008 0.008-0.015 0.023-0.015 0.008 0 0.015 0.008 0.015 0.015v0.085c0 0 0-0.008 0.008-0.008 0.031-0.047 0.085-0.101 0.155-0.101 0.008 0 0.015 0.008 0.015 0.015s-0.008 0.023-0.015 0.023c-0.054 0-0.085 0.031-0.116 0.062-0.023 0.039-0.039 0.078-0.047 0.093v0.178c0 0.008-0.008 0.015-0.015 0.015s-0.023-0.008-0.023-0.015v-0.349z"></path>
<path fill="#fff" style="fill: var(--color3, #fff)" d="M19.451 24.019c0-0.070-0.054-0.124-0.124-0.124s-0.124 0.054-0.124 0.124v0.217c0 0.008-0.008 0.008-0.008 0.008h-0.008c0 0 0 0-0.008 0v-0.217c0-0.070-0.054-0.124-0.124-0.124s-0.124 0.054-0.124 0.124v0.217c0 0.008 0 0.016-0.008 0.016 0 0 0 0-0.008 0s-0.015-0.008-0.015-0.016v-0.372c0-0.008 0.008-0.015 0.015-0.015s0.023 0.008 0.023 0.015v0.039c0.031-0.031 0.070-0.054 0.124-0.054 0.062 0 0.116 0.031 0.14 0.085 0.031-0.046 0.085-0.085 0.14-0.085 0.085 0 0.163 0.070 0.163 0.163v0.217c0 0.008-0.008 0.015-0.023 0.015-0.008 0-0.015-0.008-0.015-0.015v-0.217h-0.015z"></path>
<path fill="#f7a9a0" style="fill: var(--color9, #f7a9a0)" d="M20.591 29.557c0.186 0.031 5.204-0.69 5.375-0.838 0.070-0.054 0.008-0.791-0.101-1.683 0-0.008 0-0.016 0-0.031-0.023-0.186-0.659-3.219-0.659-3.219l-3.358 0.473 0.776 3.172 0.008 0.054c0 0-1.799 1.132-1.97 1.318-0.171 0.194-0.256 0.721-0.070 0.752z"></path>
<path fill="#ffc727" style="fill: var(--color7, #ffc727)" d="M25.966 28.719c-0.171 0.147-5.188 0.876-5.375 0.838-0.186-0.031-0.101-0.558 0.070-0.745s1.97-1.319 1.97-1.319l-0.008-0.054-0.085-0.364 3.25-0.489c0.023 0.132 0.078 0.396 0.078 0.427 0 0.008 0 0.015 0 0.031 0.109 0.884 0.171 1.621 0.101 1.675z"></path>
<path fill="#a6a6a6" style="fill: var(--color10, #a6a6a6)" d="M20.591 29.557c0.093 0.015 1.458-0.163 2.792-0.365 0.271-0.039 0.535-0.085 0.791-0.124 0.946-0.147 1.73-0.295 1.799-0.349s0.008-0.776-0.093-1.644c0-0.016 0-0.023-0.008-0.039 0-0.008 0-0.016 0-0.031l-3.242 0.427 0.008 0.054c0 0-1.799 1.132-1.97 1.318-0.178 0.194-0.264 0.721-0.078 0.752z"></path>
<path fill="#37474f" style="fill: var(--color11, #37474f)" d="M22.142 26.881l3.777-0.52c0 0-0.939-6.437-0.907-6.585 0.039-0.194 2.249-9.222 2.249-9.222h-3.095c0 0-2.544 8.376-2.645 9.183-0.171 1.303 0.62 7.143 0.62 7.143z"></path>
<path fill="#263238" style="fill: var(--color4, #263238)" d="M26.547 11.246c-0.078 0.225-0.14 0.45-0.209 0.667-0.070 0.225-0.132 0.45-0.194 0.675-0.132 0.442-0.256 0.892-0.38 1.334-0.256 0.9-0.496 1.799-0.737 2.707-0.116 0.45-0.233 0.892-0.349 1.342s-0.24 0.9-0.341 1.349c-0.046 0.217-0.078 0.427-0.070 0.652 0.015 0.225 0.054 0.442 0.093 0.667 0.078 0.457 0.147 0.923 0.225 1.38 0.147 0.931 0.31 1.861 0.465 2.792 0.023 0.116 0.039 0.225 0.062 0.341 0 0.008 0.015 0.008 0.015 0-0.124-0.923-0.279-1.846-0.427-2.769-0.070-0.458-0.147-0.908-0.217-1.365-0.039-0.24-0.078-0.473-0.116-0.713-0.031-0.225-0.054-0.458-0.023-0.683s0.093-0.442 0.147-0.659c0.054-0.225 0.109-0.442 0.171-0.667 0.116-0.45 0.233-0.9 0.349-1.342 0.233-0.9 0.481-1.799 0.721-2.691 0.248-0.892 0.496-1.784 0.744-2.676 0.031-0.109 0.062-0.217 0.093-0.334-0.015-0.008-0.023-0.015-0.023-0.008z"></path>
<path fill="#f7a9a0" style="fill: var(--color9, #f7a9a0)" d="M23.825 30.402c0.178 0.054 5.251-0.039 5.437-0.163 0.070-0.047 0.101-0.783 0.116-1.683 0-0.008 0-0.015 0-0.031 0-0.186-0.101-3.273-0.101-3.273l-3.312 0.054 0.147 3.25v0.054c0 0-1.923 0.908-2.117 1.063-0.202 0.163-0.349 0.675-0.171 0.729z"></path>
<path fill="#ffc727" style="fill: var(--color7, #ffc727)" d="M29.386 28.176c0 0.116 0 0.241 0 0.357v0.031c-0.008 0.892-0.039 1.636-0.116 1.683-0.186 0.124-5.258 0.217-5.437 0.163s-0.031-0.566 0.163-0.729c0.194-0.163 2.117-1.063 2.117-1.063v-0.054l-0.016-0.349c0.582-0.015 2.257-0.031 3.288-0.039z"></path>
<path fill="#a6a6a6" style="fill: var(--color10, #a6a6a6)" d="M23.825 30.402c0.178 0.054 5.251-0.039 5.437-0.163 0.070-0.047 0.101-0.783 0.116-1.683 0-0.008 0-0.015 0-0.031l-3.273 0.023v0.054c0 0-1.923 0.907-2.117 1.063-0.194 0.171-0.341 0.683-0.163 0.737z"></path>
<path fill="#37474f" style="fill: var(--color11, #37474f)" d="M24.252 10.556c0 0 0.070 1.481 0.411 2.652 0.023 0.101 0.054 0.194 0.085 0.287 0 0 0.132 0 0.675 0.326l0.45 14.185 3.653-0.039c0 0-0.582-7.515-0.582-7.996 0.008-0.776-0.419-6.018-0.372-6.15 0.45-1.357-0.295-3.265-0.295-3.265h-4.025z"></path>
<path fill="#263238" style="fill: var(--color4, #263238)" d="M25.772 21.398c-0.047-1.629-0.101-3.25-0.163-4.878-0.039-0.915-0.078-1.83-0.132-2.753 0-0.031-0.054-0.031-0.046 0 0.039 1.636 0.101 3.265 0.155 4.902 0.054 1.629 0.109 3.25 0.163 4.878 0.031 0.915 0.062 1.83 0.101 2.753 0 0.015 0.023 0.015 0.023 0-0.015-1.636-0.054-3.265-0.101-4.902z"></path>
<path fill="#263238" style="fill: var(--color4, #263238)" d="M28.626 23.67c-0.078-1.063-0.155-2.133-0.24-3.195-0.078-1.063-0.155-2.133-0.24-3.195-0.039-0.535-0.078-1.063-0.116-1.598-0.023-0.264-0.039-0.535-0.062-0.799s-0.054-0.527-0.046-0.791c0.008-0.287 0.132-0.543 0.202-0.822 0.062-0.264 0.085-0.535 0.085-0.799-0.008-0.558-0.132-1.101-0.248-1.644-0.008-0.031-0.054-0.015-0.046 0.015 0.116 0.496 0.225 1 0.248 1.512 0.008 0.256 0 0.512-0.054 0.76-0.047 0.24-0.147 0.465-0.202 0.706-0.062 0.248-0.023 0.496-0.008 0.752 0.023 0.264 0.039 0.535 0.054 0.799 0.039 0.52 0.078 1.047 0.116 1.567 0.155 2.125 0.31 4.242 0.481 6.367 0.093 1.194 0.171 2.389 0.287 3.583 0 0.008 0.015 0.008 0.015 0-0.062-1.086-0.147-2.156-0.225-3.219z"></path>
<path fill="#263238" style="fill: var(--color4, #263238)" d="M27.881 12.161c-0.062-0.023-0.132-0.031-0.194-0.047-0.070-0.015-0.132-0.039-0.194-0.070-0.116-0.054-0.24-0.124-0.341-0.202-0.109-0.085-0.171-0.194-0.217-0.318-0.031-0.062-0.054-0.132-0.077-0.202-0.016-0.031-0.023-0.062-0.039-0.101-0.008-0.015-0.039-0.085-0.047-0.101h0.008v-0.008c-0.008-0.008-0.008-0.008-0.016-0.008 0 0-0.008 0-0.008 0.008-0.015 0.023 0 0.047 0.008 0.070 0.008 0.047 0.023 0.085 0.031 0.132 0.023 0.078 0.039 0.155 0.062 0.225 0.046 0.14 0.109 0.271 0.217 0.365s0.24 0.171 0.38 0.217c0.070 0.023 0.14 0.047 0.217 0.062 0.070 0.008 0.14 0.023 0.209 0.015 0.008-0.015 0.008-0.031 0-0.039z"></path>
<path fill="#263238" style="fill: var(--color4, #263238)" d="M24.942 12.983c-0.008-0.124-0.015-0.256-0.031-0.38-0.023-0.287-0.054-0.582-0.109-0.869-0.008-0.023-0.039-0.015-0.031 0.008 0.023 0.225 0.047 0.45 0.070 0.675s0.046 0.45 0.054 0.675c0 0.070 0 0.186-0.085 0.202-0.109 0.023-0.163-0.124-0.194-0.202-0.070-0.202-0.109-0.411-0.14-0.613-0.039-0.24-0.054-0.481-0.078-0.714 0-0.008-0.015-0.008-0.015 0 0 0.473 0.008 0.969 0.178 1.419 0.031 0.085 0.093 0.178 0.194 0.186 0 0 0 0 0.008 0v0.008c0 0.015 0.008 0.023 0.008 0.039 0 0.008 0.008 0.023 0.008 0.031 0.008 0.023 0.008 0.047 0.015 0.070s0.031 0.015 0.031-0.008c0.008 0 0.008-0.008 0.008-0.015 0-0.047-0.015-0.093-0.031-0.132 0.054-0.008 0.101-0.047 0.124-0.101 0.039-0.093 0.023-0.194 0.015-0.279z"></path>
<path fill="#263238" style="fill: var(--color4, #263238)" d="M24.562 8.632c0.217 0.171 0.427 0.295 0.636 0.396-0.341-0.582-0.295-1.892-0.248-1.706 0.202 0.892 0.76 1.869 0.977 1.923 0.574 0.078 1.093-0.078 1.528-0.326-0.442-0.659-0.427-1.985-0.396-1.908 0.326 0.869 1 1.373 1.117 1.373 0.434-0.411 0.659-0.822 0.597-0.869-0.45-0.302-0.83-1.086-1.171-1.916-0.341-0.814-0.512-1.598-0.993-2.327-0.434-0.667-1.311-0.791-1.807-0.45-1.295 0.9-0.52 5.6-0.241 5.809z"></path>
<path fill="#263238" style="fill: var(--color4, #263238)" d="M25.911 2.87c0.357 0.085 0.659 0.411 0.845 0.721 0.248 0.403 0.419 0.861 0.62 1.295 0.411 0.845 0.923 1.621 1.567 2.303 0.016 0.016-0.008 0.039-0.023 0.023-0.698-0.527-1.179-1.28-1.567-2.055-0.202-0.396-0.357-0.814-0.551-1.21-0.101-0.217-0.225-0.434-0.38-0.62-0.155-0.178-0.333-0.287-0.535-0.388-0.031-0.031-0.016-0.085 0.023-0.070z"></path>
<path fill="#263238" style="fill: var(--color4, #263238)" d="M26.26 15.55h-0.186c0-0.008 0-0.52 0-1.039 0.008-0.566 0.481-0.923 0.931-0.946 0.341-0.015 0.76 0.163 0.83 0.721 0.070 0.605 0.085 0.892 0.085 0.9l-0.186 0.008c0 0-0.015-0.295-0.085-0.892-0.047-0.434-0.357-0.574-0.628-0.558-0.372 0.023-0.752 0.31-0.76 0.76 0 0.527 0 1.039 0 1.047z"></path>
<path fill="#fff" style="fill: var(--color3, #fff)" d="M29.285 19.932c0.093-0.093 0.186-0.178 0.287-0.271 0.093-0.085 0.194-0.171 0.295-0.256l0.015-0.008 0.015 0.008c0.101 0.047 0.194 0.101 0.295 0.155 0.093 0.054 0.194 0.109 0.287 0.163-0.101-0.039-0.202-0.085-0.302-0.124-0.101-0.046-0.202-0.093-0.295-0.14h0.031c-0.101 0.085-0.202 0.171-0.302 0.248-0.116 0.070-0.217 0.147-0.326 0.225z"></path>
<path fill="#fff" style="fill: var(--color3, #fff)" d="M29.882 19.428c-0.085-0.326-0.155-0.651-0.233-0.985-0.078-0.326-0.147-0.659-0.217-0.985-0.070-0.333-0.14-0.659-0.202-0.993l-0.101-0.496c-0.031-0.163-0.062-0.333-0.093-0.496 0.039 0.163 0.077 0.326 0.116 0.489l0.116 0.489c0.078 0.326 0.147 0.659 0.217 0.985 0.070 0.334 0.14 0.659 0.202 0.993 0.070 0.341 0.14 0.667 0.194 1z"></path>
<path fill="#263238" style="fill: var(--color4, #263238)" d="M26.028 15.604l-0.186-0.039c0-0.008 0.109-0.52 0.225-1.032 0.124-0.558 0.675-0.814 1.132-0.745 0.341 0.054 0.721 0.326 0.667 0.9-0.062 0.613-0.109 0.9-0.109 0.915l-0.186-0.031c0 0 0.046-0.295 0.109-0.9 0.047-0.442-0.233-0.644-0.504-0.69-0.372-0.062-0.814 0.147-0.915 0.597-0.124 0.512-0.233 1.016-0.233 1.024z"></path>
<path fill="#fff" style="fill: var(--color3, #fff)" d="M28.486 21.227c0.124-0.085 0.248-0.171 0.38-0.248 0.124-0.078 0.256-0.155 0.388-0.233l0.015-0.008 0.016 0.015c0.101 0.078 0.202 0.155 0.302 0.233s0.194 0.155 0.295 0.241c-0.109-0.062-0.217-0.132-0.318-0.209-0.109-0.070-0.209-0.147-0.31-0.217h0.031c-0.132 0.078-0.264 0.147-0.396 0.217-0.132 0.077-0.264 0.147-0.403 0.209z"></path>
<path fill="#fff" style="fill: var(--color3, #fff)" d="M29.27 20.777c-0.023-0.388-0.046-0.776-0.062-1.163s-0.031-0.776-0.047-1.163c-0.008-0.388-0.023-0.776-0.031-1.163l-0.008-0.582c0-0.194-0.008-0.388-0.008-0.582 0.015 0.194 0.023 0.388 0.039 0.582l0.031 0.582c0.015 0.388 0.031 0.776 0.046 1.163 0.008 0.388 0.023 0.776 0.031 1.163 0 0.388 0.008 0.776 0.008 1.163z"></path>
<path fill="#a6a6a6" style="fill: var(--color10, #a6a6a6)" d="M21.289 4.118l0.721 2.241c0.031 0.062 0 0.124-0.070 0.124l-1.171 0.078c-0.062 0.008-0.14-0.047-0.171-0.109l-0.721-2.241c-0.031-0.062 0-0.124 0.070-0.124l1.171-0.078c0.062 0 0.14 0.047 0.171 0.109z"></path>
<path fill="#dbdbdb" style="fill: var(--color12, #dbdbdb)" d="M21.149 4.126l0.721 2.241c0.031 0.062 0 0.124-0.070 0.124l-1.171 0.078c-0.062 0.008-0.14-0.047-0.171-0.109l-0.721-2.241c-0.031-0.062 0-0.124 0.070-0.124l1.171-0.078c0.062-0.008 0.14 0.047 0.171 0.109z"></path>
<path fill="#f7a9a0" style="fill: var(--color9, #f7a9a0)" d="M25.299 7.329c-0.558 1.466-1.923 3.413-2.536 3.459-0.295 0.023-0.814 0.132-1.225-0.178-0.892-0.675-1.699-2.032-1.9-2.831-0.070-0.279 1.28-1.008 1.505-0.791 0.52 0.512 1.163 1.543 1.249 1.528 0.318-0.047 1.474-1.163 2.288-1.954 0.969-0.938 0.838 0.178 0.621 0.768z"></path>
<path fill="#f7a9a0" style="fill: var(--color9, #f7a9a0)" d="M19.722 8.027c0 0-0.318-0.791-0.271-1.435 0.031-0.442 0.217-1.404 1.411-1.993 0.287-0.14 0.783-0.14 0.403 0.256-0.271 0.279-0.527 0.38-0.652 0.566 0 0 0.636 0.078 0.768 0.372 0.054 0.132 0.202 0.489 0.279 0.783 0 0-0.062 0.031-0.14 0.062 0 0 0.093 0.279-0.085 0.698l-1.714 0.69z"></path>
<path fill="#f7a9a0" style="fill: var(--color9, #f7a9a0)" d="M19.552 6.174c0.171-0.163 0.527-0.504 0.915-0.683 0.434-0.194 1.326-0.458 1.466-0.132 0.101 0.233-0.225 0.365-0.225 0.365s0.388-0.031 0.434 0.202c0.046 0.209-0.217 0.295-0.217 0.295s0.241 0.023 0.241 0.233c0 0.256-0.504 0.171-0.721 0.427-0.047 0.070-1.892-0.706-1.892-0.706z"></path>
<path fill="#ffc727" style="fill: var(--color7, #ffc727)" d="M21.607 7.484l-1.621 1.877c0 0 1.388 1.357 1.838 1.466s0.791 0.039 1.109-0.047c0.318-0.093 1.869-1.892 2.381-3.358 0.512-1.474-0.039-1.543-0.907-0.651s-1.947 1.768-2.001 1.706c-0.054-0.070-0.799-0.993-0.799-0.993z"></path>
<path fill="#000" style="fill: var(--color13, #000)" opacity="0.1" d="M21.607 7.484l-1.621 1.877c0 0 1.388 1.357 1.838 1.466s0.791 0.039 1.109-0.047c0.318-0.093 1.869-1.892 2.381-3.358 0.512-1.474-0.039-1.543-0.907-0.651s-1.947 1.768-2.001 1.706c-0.054-0.070-0.799-0.993-0.799-0.993z"></path>
<path fill="#263238" style="fill: var(--color4, #263238)" d="M21.902 8.004c-0.070 0.062-0.605 0.667-0.729 0.807-0.116 0.132-0.582 0.698-0.698 0.838-0.008 0.008 0 0.015 0.008 0.008 0.062-0.070 0.132-0.132 0.194-0.202s0.427-0.481 0.543-0.613c0.116-0.14 0.644-0.76 0.69-0.83 0.008-0.008 0-0.016-0.008-0.008z"></path>
<path fill="#ffc727" style="fill: var(--color7, #ffc727)" d="M23.817 9.904l-0.303 2.606c0 0 4.227-0.062 5.274-0.171 0 0-1.001-4.824-2.164-6.018-0.582-0.597-1.241-0.527-1.652-0.093-0.101 0.109-1.326 1.838-1.443 2.482-0.101 0.582 0.287 1.194 0.287 1.194z"></path>
<path fill="#263238" style="fill: var(--color4, #263238)" d="M23.647 9.485c-0.047-0.147-0.078-0.302-0.078-0.458 0-0.318 0.093-0.628 0.233-0.907 0.078-0.163 0.171-0.318 0.248-0.481 0-0.008-0.008-0.008-0.008 0-0.078 0.109-0.14 0.225-0.202 0.333 0-0.008 0-0.008 0.008-0.016 0.015-0.062 0.039-0.124 0.062-0.186 0-0.008-0.008-0.008-0.008-0.008-0.023 0.062-0.047 0.116-0.070 0.178-0.015 0.039-0.023 0.078-0.031 0.116-0.078 0.14-0.14 0.287-0.194 0.442-0.101 0.302-0.116 0.628-0.023 0.938 0.023 0.078 0.062 0.155 0.093 0.233 0.039 0.085 0.093 0.163 0.14 0.24 0 0.008 0.015 0 0.008-0.008-0.078-0.124-0.132-0.271-0.178-0.419z"></path>
<path fill="#f7a9a0" style="fill: var(--color9, #f7a9a0)" d="M25.935 6.251c-0.031 0.078-0.527 0.535-0.892 0.45-0.124-0.031 0.008-0.69 0.008-0.69v-0.054l-0.023-0.714 0.907-0.365 0.132-0.047c0 0-0.008 0.194-0.015 0.442 0 0.008 0 0.023 0 0.031 0 0.016 0 0.023 0 0.039 0 0.039 0 0.078-0.008 0.109 0 0.031 0 0.054-0.008 0.085 0 0.031-0.008 0.062-0.008 0.085-0.023 0.302-0.078 0.597-0.093 0.628z"></path>
<path fill="#263238" style="fill: var(--color4, #263238)" d="M26.043 5.266c-0.302 0.512-0.783 0.651-0.993 0.69l-0.023-0.714 0.907-0.365 0.132-0.047c-0.008-0.008-0.008 0.194-0.023 0.434z"></path>
<path fill="#263238" style="fill: var(--color4, #263238)" d="M24.515 3.878c0.031 0 0.054 0 0.085-0.008 0.031 0 0.062 0 0.085-0.023 0.015-0.008 0.015-0.039 0.008-0.054-0.023-0.039-0.062-0.039-0.109-0.039s-0.078 0.015-0.109 0.047c-0.023 0.023 0 0.078 0.039 0.078z"></path>
<path fill="#263238" style="fill: var(--color4, #263238)" d="M25.337 4.002c-0.031-0.008-0.054-0.015-0.085-0.031s-0.054-0.015-0.078-0.047c-0.008-0.015-0.008-0.039 0.008-0.054 0.031-0.031 0.078-0.023 0.109-0.008 0.039 0.015 0.070 0.031 0.093 0.070 0.031 0.031-0.008 0.078-0.047 0.070z"></path>
<path fill="#263238" style="fill: var(--color4, #263238)" d="M25.268 4.235c0.023 0.016 0.039 0.047 0.070 0.054s0.062-0.016 0.085-0.047h0.008c-0.008 0.054-0.031 0.101-0.093 0.109-0.054 0-0.085-0.047-0.093-0.109 0.008 0 0.015-0.016 0.023-0.008z"></path>
<path fill="#263238" style="fill: var(--color4, #263238)" d="M24.515 4.126c-0.023 0.008-0.047 0.031-0.078 0.031s-0.047-0.039-0.062-0.070h-0.008c-0.008 0.054 0 0.109 0.047 0.124s0.085-0.023 0.109-0.070c0.008-0.008 0-0.023-0.008-0.016z"></path>
<path fill="#263238" style="fill: var(--color4, #263238)" d="M25.019 4.971c-0.023 0.016-0.046 0.047-0.078 0.047s-0.062-0.016-0.093-0.031c0 0-0.008 0-0.008 0.008 0.023 0.031 0.062 0.062 0.109 0.054 0.039 0 0.062-0.039 0.070-0.070 0.008-0.008 0-0.016 0-0.008z"></path>
<path fill="#263238" style="fill: var(--color4, #263238)" d="M24.701 4.615c0 0-0.031 0.124-0.047 0.186 0 0.008 0.016 0.008 0.031 0.016 0.101 0.031 0.217 0.008 0.287-0.070 0.008-0.008 0-0.016-0.008-0.008-0.085 0.047-0.178 0.054-0.271 0.039 0-0.016 0.070-0.209 0.054-0.217-0.031-0.008-0.101 0.008-0.14 0.016 0.062-0.264 0.171-0.512 0.233-0.776 0-0.008-0.008-0.015-0.016-0.008-0.132 0.256-0.209 0.551-0.287 0.822 0.008 0.039 0.14 0.008 0.163 0z"></path>
<path fill="#263238" style="fill: var(--color4, #263238)" d="M26.276 4.56c-0.31-0.023-0.365-0.977-0.365-1.094 0 0.078-0.008 0.465-0.039 0.481-0.008 0-0.039-0.008-0.093-0.023 0-0.047 0-0.093-0.008-0.14 0-0.023-0.008 0.047-0.023 0.132-0.015-0.008-0.039-0.015-0.054-0.015 0.008-0.085 0.008-0.186-0.016-0.295-0.008-0.039-0.023 0.132-0.062 0.271-0.209-0.062-0.512-0.155-0.799-0.171-0.078-0.008-0.14-0.008-0.202-0.008 0.008-0.116 0.023-0.24 0.016-0.209-0.031 0.078-0.047 0.147-0.054 0.209-0.031 0-0.062 0-0.085 0 0-0.163 0.085-0.419 0.054-0.38-0.109 0.147-0.155 0.31-0.171 0.396-0.109 0.015-0.14 0.039-0.147 0.008 0-0.054 0.078-0.504 0.442-0.822 0.396-0.349 1.171-0.411 1.582 0.163 0 0 0.349 0.248 0.388 0.62 0.031 0.38-0.186 0.892-0.365 0.876z"></path>
<path fill="#263238" style="fill: var(--color4, #263238)" d="M26.57 4.514c-0.147 0.054-0.233 0.186-0.295 0.326 0.047-0.054 0.109-0.078 0.178-0.023 0 0 0 0.008-0.008 0.008-0.062-0.016-0.101-0.008-0.147 0.039-0.031 0.031-0.054 0.078-0.078 0.116-0.008 0.016-0.031 0.008-0.023-0.008 0.008-0.194 0.171-0.45 0.372-0.458z"></path>
<path fill="#f7a9a0" style="fill: var(--color9, #f7a9a0)" d="M26.85 6.321c1.45 1.187 2.621 3.001 2.683 3.459 0.070 0.504-0.109 2.342-0.589 3.273-0.124 0.248-2.001-0.876-1.877-1.14 0.241-0.52 0.589-1.931 0.543-2.21-0.047-0.264-0.783-1.83-1.295-2.652-0.458-0.76-0.14-1.28 0.535-0.729z"></path>
<path fill="#f7a9a0" style="fill: var(--color9, #f7a9a0)" d="M25.632 14.146c0.124 0.194 0.357 0.132 0.357 0.132s0 0.186 0.116 0.31c0.14 0.147 0.427-0.008 0.427-0.008s0.039 0.186 0.178 0.31c0.147 0.124 0.458 0.015 0.458 0.015s0.132 0.155 0.326 0.171c0.341 0.031 0.652-0.388 0.853-0.644 0.202-0.264 0.527-1.194 0.605-1.365l-1.667-1.303c0 0-1.233 0.915-1.427 1.256-0.155 0.279-0.365 0.907-0.225 1.125z"></path>
<path fill="#263238" style="fill: var(--color4, #263238)" d="M26.516 14.55c0.023-0.078 0.078-0.147 0.116-0.217 0.047-0.070 0.093-0.147 0.147-0.217 0.101-0.14 0.202-0.287 0.31-0.419 0.008-0.008 0.015 0 0.008 0.008-0.101 0.14-0.194 0.287-0.287 0.434-0.047 0.070-0.093 0.147-0.14 0.225-0.039 0.070-0.078 0.147-0.14 0.202-0.008 0.008-0.023 0-0.016-0.015z"></path>
<path fill="#263238" style="fill: var(--color4, #263238)" d="M27.176 14.891c0.015-0.070 0.078-0.132 0.116-0.186 0.046-0.062 0.093-0.132 0.14-0.194 0.093-0.132 0.186-0.256 0.271-0.396 0.008-0.008 0.015 0 0.008 0.008-0.085 0.132-0.171 0.271-0.264 0.403-0.046 0.070-0.085 0.132-0.132 0.194-0.039 0.062-0.078 0.132-0.14 0.171z"></path>
<path fill="#ffc727" style="fill: var(--color7, #ffc727)" d="M26.152 6.895c0.279 0.791 1.411 2.668 1.404 2.846s-0.558 2.063-0.558 2.063l2.241 1.357c0 0 0.496-2.567 0.31-3.459-0.14-0.682-1.722-2.676-2.49-3.288-0.768-0.605-1.264-0.527-0.907 0.481z"></path>
<path fill="#000" style="fill: var(--color13, #000)" opacity="0.1" d="M26.152 6.895c0.279 0.791 1.411 2.668 1.404 2.846s-0.558 2.063-0.558 2.063l2.241 1.357c0 0 0.496-2.567 0.31-3.459-0.14-0.682-1.722-2.676-2.49-3.288-0.768-0.605-1.264-0.527-0.907 0.481z"></path>
<path fill="#263238" style="fill: var(--color4, #263238)" d="M27.563 9.633c-0.023-0.132-0.101-0.256-0.163-0.372-0.14-0.264-0.279-0.527-0.434-0.783-0.085-0.14-0.419-0.69-0.512-0.869-0.008-0.016-0.031 0-0.023 0.016 0.054 0.109 0.209 0.388 0.326 0.589-0.016-0.023-0.031-0.039-0.054-0.062-0.031-0.039-0.070-0.078-0.101-0.109-0.039-0.039-0.085-0.070-0.116-0.116-0.008-0.008-0.015 0-0.008 0.008 0.062 0.085 0.132 0.155 0.202 0.233 0.031 0.039 0.070 0.078 0.101 0.116 0.023 0.023 0.047 0.054 0.070 0.078 0.008 0.008 0.008 0.015 0.015 0.023 0.147 0.256 0.279 0.512 0.419 0.768 0.070 0.124 0.147 0.248 0.194 0.38 0.023 0.062 0.039 0.124 0.039 0.194-0.008 0.078-0.031 0.155-0.047 0.225-0.078 0.279-0.147 0.558-0.225 0.845-0.039 0.163-0.085 0.326-0.124 0.489s-0.085 0.326-0.109 0.489c0 0.008 0.015 0.023 0.023 0.008 0.054-0.14 0.093-0.287 0.132-0.427 0.039-0.147 0.085-0.295 0.124-0.434 0.078-0.295 0.155-0.589 0.233-0.892 0.015-0.124 0.062-0.256 0.039-0.396z"></path>
<path fill="#ffc727" style="fill: var(--color7, #ffc727)" d="M5.785 23.981h3.42c0.45 0 0.814-0.365 0.814-0.814v-6.406c0-0.233 0.163-0.822 0.869-0.822h-4.297c-0.45 0-0.814 0.365-0.814 0.814v7.228h0.008z"></path>
<path fill="#000" style="fill: var(--color13, #000)" opacity="0.1" d="M5.785 23.981h3.42c0.45 0 0.814-0.365 0.814-0.814v-6.406c0-0.233 0.163-0.822 0.869-0.822h-4.297c-0.45 0-0.814 0.365-0.814 0.814v7.228h0.008z"></path>
<path fill="#ffc727" style="fill: var(--color7, #ffc727)" d="M2.481 21.274v7.732h2.59v0.008c0 0.45 0.357 0.814 0.807 0.822h0.031c0.031 0 0.054 0 0.085-0.008l0.155-0.031c0.039-0.015 0.078-0.031 0.109-0.046 0.016-0.008 0.039-0.016 0.054-0.031 0.008-0.008 0.016-0.008 0.023-0.015 0.023-0.015 0.047-0.031 0.070-0.046l0.008-0.008c0.016-0.015 0.031-0.023 0.047-0.039 0.008-0.008 0.016-0.015 0.023-0.023 0.093-0.093 0.163-0.209 0.202-0.333v-0.008c0.008-0.023 0.008-0.039 0.016-0.062s0.008-0.054 0.016-0.077c0-0.016 0-0.023 0-0.039 0-0.008 0-0.008 0-0.016 0-0.015 0-0.031 0-0.046v-7.74c0-0.233 0.163-0.822 0.869-0.822h-4.289c-0.45 0.015-0.814 0.38-0.814 0.83z"></path>
<path fill="#ffc727" style="fill: var(--color7, #ffc727)" d="M10.85 15.938c-0.458 0-0.822 0.372-0.822 0.822v1.551h1.644v-1.551c0-0.45-0.372-0.822-0.822-0.822z"></path>
<path fill="#000" style="fill: var(--color13, #000)" opacity="0.2" d="M10.85 15.938c-0.458 0-0.822 0.372-0.822 0.822v1.551h1.644v-1.551c0-0.45-0.372-0.822-0.822-0.822z"></path>
<path fill="#ffc727" style="fill: var(--color7, #ffc727)" d="M6.716 21.282v2.707h2.451c-0.442-0.008-0.807-0.372-0.807-0.822v-1.885c0-0.458-0.372-0.822-0.822-0.822-0.225 0-0.434 0.093-0.582 0.24s-0.24 0.349-0.24 0.582z"></path>
<path fill="#000" style="fill: var(--color13, #000)" opacity="0.2" d="M6.716 21.282v2.707h2.451c-0.442-0.008-0.807-0.372-0.807-0.822v-1.885c0-0.458-0.372-0.822-0.822-0.822-0.225 0-0.434 0.093-0.582 0.24s-0.24 0.349-0.24 0.582z"></path>
<path fill="#ffc727" style="fill: var(--color7, #ffc727)" d="M1.279 29.006v0.008c0 0.45 0.357 0.814 0.807 0.822h3.793c-0.442-0.008-0.807-0.372-0.807-0.822v-0.008h-3.793z"></path>
<path fill="#000" style="fill: var(--color13, #000)" opacity="0.2" d="M1.279 29.006v0.008c0 0.45 0.357 0.814 0.807 0.822h3.793c-0.442-0.008-0.807-0.372-0.807-0.822v-0.008h-3.793z"></path>
</symbol>
<symbol id="icon-logo" viewBox="0 0 128 32">
<path fill="#24cca7" style="fill: var(--color1, #24cca7)" d="M3.755 7.619l16.211-4.537-0.858-1.779c-0.562-1.157-1.932-1.634-3.060-1.058l-14.513 7.375h2.219z"></path>
<path fill="#24cca7" style="fill: var(--color1, #24cca7)" d="M24.813 3.048c-0.195 0-0.391 0.029-0.586 0.087l-15.012 4.484h18.431l-0.693-2.779c-0.266-1.083-1.163-1.793-2.14-1.793z"></path>
<path fill="#4a56e2" style="fill: var(--color2, #4a56e2)" d="M28.36 8.573h-26.559c-0.568 0-1.074 0.26-1.405 0.67-0.151 0.189-0.266 0.406-0.331 0.645-0.040 0.15-0.065 0.307-0.065 0.467v19.862c0 0.984 0.805 1.783 1.797 1.783h26.559c0.992 0 1.797-0.799 1.797-1.783v-4.973h-10.662c-1.685 0-3.055-1.358-3.055-3.030v-3.964c0-0.82 0.331-1.565 0.866-2.111 0.474-0.485 1.11-0.813 1.822-0.895 0.119-0.014 0.241-0.021 0.363-0.021h10.665v-4.867c0.004-0.984-0.801-1.783-1.793-1.783z"></path>
<path fill="#4a56e2" style="fill: var(--color2, #4a56e2)" d="M31.414 16.926c-0.18-0.164-0.392-0.289-0.629-0.371-0.183-0.061-0.377-0.096-0.582-0.096h-10.712c-0.992 0-1.797 0.799-1.797 1.783v3.968c0 0.984 0.805 1.783 1.797 1.783h10.712c0.205 0 0.399-0.036 0.582-0.096 0.237-0.078 0.449-0.207 0.629-0.371 0.359-0.324 0.586-0.795 0.586-1.316v-3.968c0-0.521-0.226-0.991-0.586-1.316zM23.243 20.58c0 0.492-0.402 0.891-0.898 0.891h-0.596c-0.496 0-0.898-0.399-0.898-0.891v-0.592c0-0.285 0.133-0.538 0.345-0.699 0.154-0.118 0.345-0.193 0.553-0.193h0.596c0.496 0 0.898 0.399 0.898 0.891v0.592z"></path>
<path fill="#000" style="fill: var(--color3, #000)" d="M72.672 7.952l-4.392 16.848h-4.968l-2.688-11.088-2.784 11.088h-4.968l-4.272-16.848h4.392l2.424 12.264 3-12.264h4.512l2.88 12.264 2.448-12.264h4.416z"></path>
<path fill="#000" style="fill: var(--color3, #000)" d="M73.914 18.080c0-1.376 0.256-2.584 0.768-3.624 0.528-1.040 1.24-1.84 2.136-2.4s1.896-0.84 3-0.84c0.944 0 1.768 0.192 2.472 0.576 0.72 0.384 1.272 0.888 1.656 1.512v-1.896h4.104v13.392h-4.104v-1.896c-0.4 0.624-0.96 1.128-1.68 1.512-0.704 0.384-1.528 0.576-2.472 0.576-1.088 0-2.080-0.28-2.976-0.84-0.896-0.576-1.608-1.384-2.136-2.424-0.512-1.056-0.768-2.272-0.768-3.648zM83.946 18.104c0-1.024-0.288-1.832-0.864-2.424-0.56-0.592-1.248-0.888-2.064-0.888s-1.512 0.296-2.088 0.888c-0.56 0.576-0.84 1.376-0.84 2.4s0.28 1.84 0.84 2.448c0.576 0.592 1.272 0.888 2.088 0.888s1.504-0.296 2.064-0.888c0.576-0.592 0.864-1.4 0.864-2.424z"></path>
<path fill="#000" style="fill: var(--color3, #000)" d="M95.123 7.040v17.76h-4.104v-17.76h4.104z"></path>
<path fill="#000" style="fill: var(--color3, #000)" d="M102.201 7.040v17.76h-4.104v-17.76h4.104z"></path>
<path fill="#000" style="fill: var(--color3, #000)" d="M117.799 17.888c0 0.384-0.023 0.784-0.071 1.2h-9.289c0.064 0.832 0.329 1.472 0.793 1.92 0.48 0.432 1.063 0.648 1.751 0.648 1.024 0 1.737-0.432 2.137-1.296h4.368c-0.224 0.88-0.633 1.672-1.225 2.376-0.576 0.704-1.303 1.256-2.183 1.656s-1.865 0.6-2.953 0.6c-1.312 0-2.48-0.28-3.504-0.84s-1.824-1.36-2.4-2.4c-0.576-1.040-0.864-2.256-0.864-3.648s0.28-2.608 0.84-3.648c0.576-1.040 1.376-1.84 2.401-2.4s2.199-0.84 3.527-0.84c1.296 0 2.448 0.272 3.456 0.816s1.792 1.32 2.352 2.328c0.576 1.008 0.864 2.184 0.864 3.528zM113.6 16.808c0-0.704-0.24-1.264-0.72-1.68s-1.081-0.624-1.801-0.624c-0.688 0-1.271 0.2-1.751 0.6-0.464 0.4-0.752 0.968-0.864 1.704h5.136z"></path>
<path fill="#000" style="fill: var(--color3, #000)" d="M127.428 21.32v3.48h-2.087c-1.488 0-2.649-0.36-3.481-1.080-0.832-0.736-1.248-1.928-1.248-3.576v-5.328h-1.632v-3.408h1.632v-3.264h4.105v3.264h2.688v3.408h-2.688v5.376c0 0.4 0.096 0.688 0.288 0.864s0.512 0.264 0.96 0.264h1.463z"></path>
</symbol>
<symbol id="icon-Ellipse-1" viewBox="0 0 49 32">
<path fill="#c5baff" style="fill: var(--color1, #c5baff)" d="M42.271 35.955c-7.608 12.942-23.206 15.886-36.912 12.405-15.794-4.787-22.254-21.542-17.744-36.422 4.184-13.804 20.616-10.021 34.225-11.592 25.199-2.705 34.993 12.723 20.432 35.609z"></path>
</symbol>
<symbol id="icon-Ellipse-2" viewBox="0 0 31 32">
<path fill="#ffd8d0" style="fill: var(--color2, #ffd8d0)" d="M46.129 22.271c-7.358 10.303-20.68 11.612-31.934 7.663-12.91-5.201-17.085-19.758-12.185-31.92 4.546-11.283 18.067-6.878 29.615-7.181 21.37-0.39 28.445 13.301 14.503 31.439z"></path>
</symbol>
</defs>
</svg>
